<?xml version="1.0" encoding="UTF-8"?>
<svg version="1.1" xmlns="http://www.w3.org/2000/svg" width="512" height="512">
<path d="M0 0 C8.02941412 5.58910199 15.06149026 11.67379824 21.59936523 18.97314453 C23.26467407 20.82273891 23.26467407 20.82273891 26 23 C29.39887221 22.66610836 32.25300998 21.58463221 35.34375 20.1796875 C36.16649414 19.81262695 36.98923828 19.44556641 37.83691406 19.06738281 C39.1551416 18.47715332 39.1551416 18.47715332 40.5 17.875 C88.59423555 -3.05660026 139.25665054 -6.15897418 188.46875 13.1171875 C194.13159347 15.42143019 199.71001483 17.94347742 205.21655273 20.59912109 C208.98469587 22.49183272 208.98469587 22.49183272 213.08251953 22.72241211 C216.09926751 21.5858502 217.75645504 19.40097376 219.9375 17.0625 C233.72972341 2.77928373 252.14734136 -10.72634584 272.625 -11.5 C282.41936412 -11.12238596 289.94680134 -8.08457998 297.00390625 -1.25390625 C313.31230065 17.16085611 315.32686909 45.77354787 314.88671875 69.1953125 C314.85180807 71.96089178 314.82397734 74.72654122 314.79492188 77.4921875 C314.74730459 81.80381172 314.69069989 86.11478242 314.60229492 90.42578125 C314.14842786 112.85446601 314.14842786 112.85446601 321 134 C327.55838544 153.05963395 328.55739473 173.03385611 329 193 C329.62632324 193.30236572 330.25264648 193.60473145 330.89794922 193.91625977 C335.2800082 196.17548855 338.09671326 199.76634952 339.93359375 204.30859375 C344.24159084 221.88843281 335.0700724 242.48580013 326.28515625 257.32421875 C323.86203907 261.29404989 321.23295516 265.09206346 318.41015625 268.7890625 C314.8487389 274.37289136 314.89328652 278.26289186 316.24658203 284.53564453 C316.47458496 285.51388184 316.70258789 286.49211914 316.9375 287.5 C317.16550293 288.53882324 317.39350586 289.57764648 317.62841797 290.64794922 C318.95016272 296.60677856 320.36505862 302.54241045 321.79296875 308.4765625 C331.02869426 346.94070078 331.02869426 346.94070078 330 365 C331.2375 365.309375 331.2375 365.309375 332.5 365.625 C344.0734622 370.17171729 353.52108712 381.35018369 358.75 392.375 C366.73285745 411.30802705 366.281223 430.36044971 359.40625 449.56640625 C352.85858948 465.5536107 340.69425254 479.04105786 324.75 485.9375 C310.43002321 491.5805417 295.29833145 492.15781474 281 486 C271.25468151 481.18286964 264.14141646 474.8685859 258 466 C257.2879541 466.21615967 256.5759082 466.43231934 255.84228516 466.6550293 C240.54065918 471.26166785 225.42329957 475.1811004 209.6796875 477.9921875 C208.72763428 478.16282715 207.77558105 478.3334668 206.79467773 478.50927734 C204.92952033 478.8367838 203.06172373 479.14959564 201.19165039 479.44775391 C196.35362871 480.280321 193.14604887 480.90724511 189.6875 484.625 C178.74808336 495.23642708 165.61346171 501.73007557 150.34887695 501.60717773 C142.25120663 501.22441826 135.37216668 498.6320184 129.76953125 492.59765625 C129.10308594 491.78167969 128.43664062 490.96570313 127.75 490.125 C124.58505157 486.2492675 124.58505157 486.2492675 119.9375 484.9375 C116.33252722 485.36532751 114.85105463 486.89877247 112.5625 489.625 C112.00175781 490.35074219 111.44101563 491.07648438 110.86328125 491.82421875 C107.20979607 496.09044778 102.31262224 499.22912592 97 501 C81.17341563 501.98111956 70.00905617 499.54741891 57 490 C55.26766613 488.42013254 53.53855138 486.83672885 51.8125 485.25 C45.82661185 480.2729694 39.91850483 479.35793477 32.44189453 478.35986328 C27.67591541 477.65749843 22.96615324 476.66374634 18.25 475.6875 C17.23429932 475.47867187 16.21859863 475.26984375 15.17211914 475.0546875 C5.91649748 473.09330903 -3.0910767 470.48880834 -12.09082031 467.58496094 C-14.04669847 466.98569188 -16.01160204 466.47911871 -18 466 C-18.42410156 466.58007812 -18.84820312 467.16015625 -19.28515625 467.7578125 C-28.01723001 479.38778327 -39.3744849 487.44031631 -54 490 C-64.5208224 491.13091518 -74.16012891 489.98343307 -84 486 C-84.85851562 485.67257812 -85.71703125 485.34515625 -86.6015625 485.0078125 C-94.35989194 481.63355494 -100.09525599 475.88757906 -106 470 C-106.598125 469.42507813 -107.19625 468.85015625 -107.8125 468.2578125 C-120.54768438 454.89971149 -124.63247129 436.31269929 -124.47314453 418.49707031 C-123.93050279 400.77468436 -117.76655942 386.38735469 -105 374 C-100.3745254 369.87828996 -96.16138949 366.42185911 -90 365 C-90.00942627 364.39051514 -90.01885254 363.78103027 -90.02856445 363.15307617 C-90.21630396 341.62492477 -84.91517988 321.06786249 -79.84838867 300.28833008 C-79.60494217 299.28413025 -79.36149567 298.27993042 -79.110672 297.24530029 C-78.65050257 295.35296357 -78.18519215 293.46186627 -77.71366882 291.57232666 C-75.02169999 281.977494 -75.02169999 281.977494 -75.93359375 272.390625 C-76.67802734 271.33101563 -76.67802734 271.33101563 -77.4375 270.25 C-77.99308594 269.41597656 -78.54867187 268.58195312 -79.12109375 267.72265625 C-79.74113281 266.82417969 -80.36117187 265.92570312 -81 265 C-92.76850661 246.70638081 -102.12726096 227.30038736 -100 205 C-98.37340688 200.48468549 -96.05946652 197.79459989 -92.25 194.9375 C-89.19215911 192.30435923 -89.32279513 189.82378428 -89 186 C-88.80157572 183.1038099 -88.62703268 180.20679064 -88.45629883 177.30883789 C-87.84023468 167.42775221 -86.87850021 157.75294506 -84.8125 148.0625 C-84.64073242 147.22654297 -84.46896484 146.39058594 -84.29199219 145.52929688 C-83.30335908 141.20835953 -82.1274101 137.18409146 -80.27416992 133.15600586 C-73.87271334 118.78014235 -74.22151816 104.97648395 -74.63592529 89.46728516 C-74.78863799 83.45709162 -74.86568431 77.44505424 -74.94921875 71.43359375 C-74.96835831 70.16306656 -74.98749786 68.89253937 -75.00721741 67.58351135 C-75.24745239 44.03401075 -72.21921083 16.32560185 -56 -2 C-39.30721556 -17.85004193 -17.19892887 -11.40745282 0 0 Z " fill="#FDBD40" transform="translate(136,11)"/>
<path d="M0 0 C2.1015625 -0.36328125 2.1015625 -0.36328125 4.625 -0.3125 C5.85089844 -0.30669922 5.85089844 -0.30669922 7.1015625 -0.30078125 C13.9033174 0.40506124 20.33407556 2.67508788 26.75 4.9375 C27.59199951 5.23253418 28.43399902 5.52756836 29.30151367 5.83154297 C37.04267111 8.58410858 44.67637236 11.59536369 52.3125 14.625 C76.39729201 24.25711299 76.39729201 24.25711299 101.9375 27.3125 C103.46793945 27.33666992 103.46793945 27.33666992 105.02929688 27.36132812 C115.45097005 27.36797884 123.79483568 24.39723305 133.0625 19.875 C133.87396484 19.48610596 134.68542969 19.09721191 135.52148438 18.6965332 C141.09319507 16.0010504 146.55521216 13.12900069 152 10.1875 C171.54650794 -0.30261583 171.54650794 -0.30261583 182 1 C184.8203125 3 184.8203125 3 187 5 C186.12859375 5.09796875 185.2571875 5.1959375 184.359375 5.296875 C169.85472428 7.11780518 153.75296943 10.91608991 144.18359375 22.91796875 C142.11047384 26.56474404 142.32279247 28.86903405 143 33 C144.67470585 36.85182345 146.14763976 38.44786938 150 40 C156.4294557 40.59008389 160.56529145 38.22735821 165.61328125 34.5625 C171.91633575 30.43611408 179.50460366 28.29250327 187 28 C188.17433594 27.9484375 189.34867188 27.896875 190.55859375 27.84375 C204.81010195 27.42299617 218.5055926 29.41250038 230.0625 38.375 C233.70216417 40.38843125 235.90665325 40.34021261 239.9453125 39.6875 C243.81745317 38.39187879 245.26651484 35.46697033 247 32 C247.47287078 27.83873715 247.05746254 24.99100963 244.51953125 21.57421875 C233.9789167 10.65425046 220.23085931 7.88608581 206 5 C207.5625 3 207.5625 3 210 1 C224.95027769 -0.69248427 241.06200473 10.40492497 253.78320312 17.26171875 C264.28986975 22.89076749 274.33490426 27.79890337 286.5 27.4375 C287.73278687 27.41333008 287.73278687 27.41333008 288.99047852 27.38867188 C305.20383605 26.8656089 319.84983911 19.56290664 334.5078125 13.171875 C350.57001073 6.1836924 364.52987276 0.7823809 382.1875 0.4375 C383.67769653 0.39653198 383.67769653 0.39653198 385.19799805 0.35473633 C392.24552933 0.39525676 392.24552933 0.39525676 396.03125 3.4296875 C396.6809375 4.27789062 397.330625 5.12609375 398 6 C398.763125 6.556875 399.52625 7.11375 400.3125 7.6875 C403.48779885 12.03883547 402.3189592 17.29540079 401.71484375 22.41796875 C398.97893515 38.70060922 390.18558581 52.51305255 381.07421875 65.91015625 C375.60200538 74.06179613 377.62285702 84.79565484 379.44042969 94.04907227 C381.1888639 102.3424526 383.35378763 110.54595202 385.43823242 118.75952148 C389.35801459 134.24271344 391.94816044 149.09974265 392.5625 165.0625 C392.60568359 166.11888672 392.64886719 167.17527344 392.69335938 168.26367188 C392.79837337 170.84234879 392.90052877 173.42110435 393 176 C393.75192627 176.23477051 394.50385254 176.46954102 395.27856445 176.71142578 C407.18527519 180.52253529 415.69275009 187.77605393 421.5078125 198.87890625 C427.61704223 211.98756775 428.66483378 228.49510927 423.875 242.3125 C417.87821713 257.50659593 409.1050544 268.37090063 394.15234375 275.32421875 C384.25706209 279.11985169 373.70973631 279.76776837 363.6875 276.0625 C353.8286821 271.33875952 346.62474726 263.88091757 342 254 C341.64869656 252.6712883 341.31240283 251.33839208 341 250 C340.26700684 250.27674561 339.53401367 250.55349121 338.77880859 250.83862305 C326.22473484 255.54321862 313.73445241 260.1908074 300.625 263.125 C299.73603027 263.32440186 298.84706055 263.52380371 297.93115234 263.72924805 C293.55068156 264.64910442 289.50221094 265.21997773 285 265 C285.40089844 264.37996094 285.80179687 263.75992187 286.21484375 263.12109375 C304.73558854 237.98941477 304.73558854 237.98941477 313 210 C312.67 209.01 312.34 208.02 312 207 C307.94177169 206.44039981 307.94177169 206.44039981 304 207 C302.56056641 208.46877711 302.56056641 208.46877711 301.52734375 210.4609375 C301.10799561 211.18958008 300.68864746 211.91822266 300.2565918 212.66894531 C298.20967489 216.46610144 296.21019098 220.28236268 294.25 224.125 C281.11349089 249.42193846 263.14789763 277.36518673 236 289 C230.38163874 290.62636773 225.04098978 291.04050459 219.8125 288.375 C207.47645881 277.95789855 204.32490782 262.50106631 203 247 C202.76930251 242.55757247 202.59335935 238.11213122 202.51708984 233.66430664 C202.49211426 232.84309326 202.46713867 232.02187988 202.44140625 231.17578125 C202.42795166 230.44270752 202.41449707 229.70963379 202.40063477 228.9543457 C201.88528925 226.44042684 201.0249501 225.54008192 199 224 C194.93927393 223.48181238 194.93927393 223.48181238 191.3515625 225.15307617 C189.45527002 227.74437902 189.52136936 229.7338219 189.375 232.92578125 C189.27771606 234.69985352 189.27771606 234.69985352 189.1784668 236.50976562 C189.09012573 238.39211914 189.09012573 238.39211914 189 240.3125 C186.99448897 273.80686374 186.99448897 273.80686374 176 286 C171.3232587 289.36532518 166.74958748 290.86243812 161 290 C130.67382301 280.27841702 110.78685283 249.66755074 96.82177734 222.72705078 C95.35931788 219.82998233 93.91419605 216.92626901 92.51098633 214 C91.20606143 211.29359201 90.14197318 209.14197318 88 207 C84.90228335 206.67045568 82.82668977 206.54665399 80.0625 208.0625 C78.394392 211.10434401 79.13827356 213.78654572 80 217 C81.56268179 220.85781212 83.41873008 224.54541407 85.3125 228.25 C85.84286865 229.30034424 86.3732373 230.35068848 86.91967773 231.43286133 C91.68649301 240.70895894 97.07663979 249.49676086 102.82080078 258.19287109 C104.27737878 260.42508441 105.65285279 262.70032446 107 265 C100.27316122 264.46673155 93.81220061 263.50665275 87.25 261.9375 C86.36401123 261.72778564 85.47802246 261.51807129 84.56518555 261.30200195 C74.74181732 258.8614296 65.33228832 255.32950633 55.91333008 251.6550293 C54.02169385 250.89203491 54.02169385 250.89203491 52 251 C50.89322135 252.79477619 49.86560646 254.63858135 48.875 256.5 C43.23875646 266.3576276 36.48027075 272.47264836 26 277 C14.6865751 280.05312626 3.09981687 278.74982123 -7 273 C-20.88410715 264.14569461 -29.78929917 251.20556823 -33.60083008 235.23803711 C-36.35333747 219.8054773 -34.20156559 205.86747745 -25.8125 192.6875 C-19.65573214 184.49180253 -11.85271819 178.88002532 -2 176 C-1.34 176 -0.68 176 0 176 C-0.01571045 175.11030518 -0.01571045 175.11030518 -0.03173828 174.20263672 C-0.39522321 150.42888209 3.84139255 128.82269059 10.1875 105.9375 C12.34502363 98.03861642 13.83006562 90.09826916 15 82 C15.13019531 81.113125 15.26039062 80.22625 15.39453125 79.3125 C16.05082248 70.76545145 10.34682022 63.79029487 5.5625 57.1875 C-3.17926196 44.93359527 -11.30771856 28.00580552 -10.69921875 12.5625 C-9.61089219 8.57399596 -7.24816709 6.72854779 -3.9453125 4.40234375 C-1.73423584 2.98114744 -1.73423584 2.98114744 0 0 Z " fill="#FEFEFE" transform="translate(60,209)"/>
<path d="M0 0 C8.02941412 5.58910199 15.06149026 11.67379824 21.59936523 18.97314453 C23.26467407 20.82273891 23.26467407 20.82273891 26 23 C29.39887221 22.66610836 32.25300998 21.58463221 35.34375 20.1796875 C36.16649414 19.81262695 36.98923828 19.44556641 37.83691406 19.06738281 C39.1551416 18.47715332 39.1551416 18.47715332 40.5 17.875 C88.59423555 -3.05660026 139.25665054 -6.15897418 188.46875 13.1171875 C194.13159347 15.42143019 199.71001483 17.94347742 205.21655273 20.59912109 C208.98469587 22.49183272 208.98469587 22.49183272 213.08251953 22.72241211 C216.09926751 21.5858502 217.75645504 19.40097376 219.9375 17.0625 C233.72972341 2.77928373 252.14734136 -10.72634584 272.625 -11.5 C282.41936412 -11.12238596 289.94680134 -8.08457998 297.00390625 -1.25390625 C313.31230065 17.16085611 315.32686909 45.77354787 314.88671875 69.1953125 C314.85180807 71.96089178 314.82397734 74.72654122 314.79492188 77.4921875 C314.74730459 81.80381172 314.69069989 86.11478242 314.60229492 90.42578125 C314.14842786 112.85446601 314.14842786 112.85446601 321 134 C327.55838544 153.05963395 328.55739473 173.03385611 329 193 C329.62632324 193.30236572 330.25264648 193.60473145 330.89794922 193.91625977 C335.2800082 196.17548855 338.09671326 199.76634952 339.93359375 204.30859375 C344.24159084 221.88843281 335.0700724 242.48580013 326.28515625 257.32421875 C323.86203907 261.29404989 321.23295516 265.09206346 318.41015625 268.7890625 C314.8487389 274.37289136 314.89328652 278.26289186 316.24658203 284.53564453 C316.47458496 285.51388184 316.70258789 286.49211914 316.9375 287.5 C317.16550293 288.53882324 317.39350586 289.57764648 317.62841797 290.64794922 C318.95016272 296.60677856 320.36505862 302.54241045 321.79296875 308.4765625 C331.02869426 346.94070078 331.02869426 346.94070078 330 365 C331.2375 365.309375 331.2375 365.309375 332.5 365.625 C344.0734622 370.17171729 353.52108712 381.35018369 358.75 392.375 C366.73285745 411.30802705 366.281223 430.36044971 359.40625 449.56640625 C352.85858948 465.5536107 340.69425254 479.04105786 324.75 485.9375 C310.43002321 491.5805417 295.29833145 492.15781474 281 486 C271.25468151 481.18286964 264.14141646 474.8685859 258 466 C257.2879541 466.21615967 256.5759082 466.43231934 255.84228516 466.6550293 C240.54065918 471.26166785 225.42329957 475.1811004 209.6796875 477.9921875 C208.72763428 478.16282715 207.77558105 478.3334668 206.79467773 478.50927734 C204.92952033 478.8367838 203.06172373 479.14959564 201.19165039 479.44775391 C196.35362871 480.280321 193.14604887 480.90724511 189.6875 484.625 C178.74808336 495.23642708 165.61346171 501.73007557 150.34887695 501.60717773 C142.25120663 501.22441826 135.37216668 498.6320184 129.76953125 492.59765625 C129.10308594 491.78167969 128.43664062 490.96570313 127.75 490.125 C124.58505157 486.2492675 124.58505157 486.2492675 119.9375 484.9375 C116.33252722 485.36532751 114.85105463 486.89877247 112.5625 489.625 C112.00175781 490.35074219 111.44101563 491.07648438 110.86328125 491.82421875 C107.20979607 496.09044778 102.31262224 499.22912592 97 501 C81.17341563 501.98111956 70.00905617 499.54741891 57 490 C55.26766613 488.42013254 53.53855138 486.83672885 51.8125 485.25 C45.82661185 480.2729694 39.91850483 479.35793477 32.44189453 478.35986328 C27.67591541 477.65749843 22.96615324 476.66374634 18.25 475.6875 C17.23429932 475.47867187 16.21859863 475.26984375 15.17211914 475.0546875 C5.91649748 473.09330903 -3.0910767 470.48880834 -12.09082031 467.58496094 C-14.04669847 466.98569188 -16.01160204 466.47911871 -18 466 C-18.42410156 466.58007812 -18.84820312 467.16015625 -19.28515625 467.7578125 C-28.01723001 479.38778327 -39.3744849 487.44031631 -54 490 C-64.5208224 491.13091518 -74.16012891 489.98343307 -84 486 C-84.85851562 485.67257812 -85.71703125 485.34515625 -86.6015625 485.0078125 C-94.35989194 481.63355494 -100.09525599 475.88757906 -106 470 C-106.598125 469.42507813 -107.19625 468.85015625 -107.8125 468.2578125 C-120.54768438 454.89971149 -124.63247129 436.31269929 -124.47314453 418.49707031 C-123.93050279 400.77468436 -117.76655942 386.38735469 -105 374 C-100.3745254 369.87828996 -96.16138949 366.42185911 -90 365 C-90.00942627 364.39051514 -90.01885254 363.78103027 -90.02856445 363.15307617 C-90.21630396 341.62492477 -84.91517988 321.06786249 -79.84838867 300.28833008 C-79.60494217 299.28413025 -79.36149567 298.27993042 -79.110672 297.24530029 C-78.65050257 295.35296357 -78.18519215 293.46186627 -77.71366882 291.57232666 C-75.02169999 281.977494 -75.02169999 281.977494 -75.93359375 272.390625 C-76.67802734 271.33101563 -76.67802734 271.33101563 -77.4375 270.25 C-77.99308594 269.41597656 -78.54867187 268.58195312 -79.12109375 267.72265625 C-79.74113281 266.82417969 -80.36117187 265.92570312 -81 265 C-92.76850661 246.70638081 -102.12726096 227.30038736 -100 205 C-98.37340688 200.48468549 -96.05946652 197.79459989 -92.25 194.9375 C-89.19215911 192.30435923 -89.32279513 189.82378428 -89 186 C-88.80157572 183.1038099 -88.62703268 180.20679064 -88.45629883 177.30883789 C-87.84023468 167.42775221 -86.87850021 157.75294506 -84.8125 148.0625 C-84.64073242 147.22654297 -84.46896484 146.39058594 -84.29199219 145.52929688 C-83.30335908 141.20835953 -82.1274101 137.18409146 -80.27416992 133.15600586 C-73.87271334 118.78014235 -74.22151816 104.97648395 -74.63592529 89.46728516 C-74.78863799 83.45709162 -74.86568431 77.44505424 -74.94921875 71.43359375 C-74.96835831 70.16306656 -74.98749786 68.89253937 -75.00721741 67.58351135 C-75.24745239 44.03401075 -72.21921083 16.32560185 -56 -2 C-39.30721556 -17.85004193 -17.19892887 -11.40745282 0 0 Z M-50.1875 12.875 C-61.33059335 30.88005274 -61.27759563 54.73645812 -60.921875 75.16796875 C-60.90158761 77.12754094 -60.881332 79.08711402 -60.86287308 81.04670429 C-60.81780528 85.79277395 -60.76403446 90.5384211 -60.67773438 95.28393555 C-60.62946503 97.97402543 -60.59503797 100.66362797 -60.57550049 103.3540802 C-60.55698032 105.86203256 -60.51946973 108.36994735 -60.45916748 110.87724304 C-60.43270753 119.33130757 -62.39336375 125.42062954 -66 133 C-66.85589275 135.42259486 -67.51863844 137.82690531 -68.1875 140.3125 C-68.49042969 141.42238281 -68.79335937 142.53226563 -69.10546875 143.67578125 C-69.40066406 144.77277344 -69.69585937 145.86976563 -70 147 C-70.48919922 148.53720703 -70.48919922 148.53720703 -70.98828125 150.10546875 C-74.15944766 161.30622097 -74.3393697 172.7823215 -74.390625 184.33398438 C-74.52744804 191.01931001 -74.91624598 196.50236119 -79 202 C-80.921875 203.671875 -80.921875 203.671875 -82.75 204.75 C-84.93901863 206.54575338 -85.8705046 207.57150119 -86.6953125 210.30078125 C-87.9217864 229.15115187 -75.92102361 248.23717575 -65.4765625 262.90234375 C-60.85900285 269.46221024 -60.28887746 274.88831646 -61.3762207 282.7043457 C-61.90978006 285.68996389 -62.50335607 288.65647563 -63.125 291.625 C-63.34655762 292.71022949 -63.56811523 293.79545898 -63.79638672 294.91357422 C-65.55967438 303.35312661 -67.663886 311.67940736 -69.89770508 320.00488281 C-73.78018879 334.51945743 -76.19204756 348.50508797 -76.0625 363.5625 C-76.05798828 364.57119141 -76.05347656 365.57988281 -76.04882812 366.61914062 C-76.03716769 369.07949147 -76.02080378 371.53971239 -76 374 C-76.65589111 374.17450684 -77.31178223 374.34901367 -77.98754883 374.52880859 C-89.28287462 377.69436438 -97.75754973 383.97114547 -104 394 C-105.54521709 396.93494064 -106.85427488 399.88862325 -108 403 C-108.35578125 403.86496094 -108.7115625 404.72992188 -109.078125 405.62109375 C-113.071106 420.25638427 -110.35442168 437.05607402 -103.25 450.25 C-101.59579735 452.93094912 -99.88746529 455.4791571 -98 458 C-97.37222656 458.84175781 -96.74445313 459.68351562 -96.09765625 460.55078125 C-89.57934105 468.16155151 -79.12601033 474.95569345 -69.0546875 476.25 C-56.69483501 477.18991274 -46.71511893 474.92049661 -37 467 C-31.43194281 461.67272366 -27.39233516 455.89883544 -24 449 C-18.46453958 450.5688056 -13.06877277 452.33693134 -7.6875 454.375 C-1.62288397 456.56702989 4.48164237 458.24116619 10.75 459.75 C11.61278564 459.96060059 12.47557129 460.17120117 13.36450195 460.38818359 C19.22156921 461.75362114 25.00511959 462.54181299 31 463 C28.49631176 458.52912814 25.86416999 454.25285847 23 450 C17.00316392 440.89036131 12.15681003 431.12885026 7.22607422 421.4152832 C6.21899121 419.43139785 5.19742476 417.45487118 4.171875 415.48046875 C2.85652734 412.69631621 2.50735651 411.0379682 3 408 C4.125 406.1875 4.125 406.1875 6 405 C11.11119843 404.3611002 11.11119843 404.3611002 13.47265625 406.05859375 C15.71245427 408.90560044 16.99410072 412.14280056 18.4375 415.4375 C31.17007567 443.37523148 52.15827605 475.95473757 82.21484375 487.203125 C87.17703494 488.62288237 91.30669439 488.54635034 96.0625 486.5625 C104.31977038 481.93970384 107.39996611 472.72045718 109.96875 464.08203125 C112.25937377 455.58422612 112.8545324 446.78955263 113.23046875 438.02734375 C113.26688477 437.20854736 113.30330078 436.38975098 113.34082031 435.54614258 C113.40397775 433.96449541 113.45216183 432.38215995 113.48339844 430.79956055 C113.66768622 425.48932 113.66768622 425.48932 115.34765625 423.015625 C117.96805343 421.40497898 120.00650015 421.62581252 123 422 C124.97829254 423.51568359 125.87902266 424.41046573 126.38476562 426.875 C126.39185547 427.57625 126.39894531 428.2775 126.40625 429 C126.4259082 429.79535156 126.44556641 430.59070313 126.46582031 431.41015625 C126.47709961 432.26480469 126.48837891 433.11945313 126.5 434 C127.03913799 450.2807825 127.82268259 471.42920369 140.51171875 483.4296875 C144.73086587 487.04609932 147.13183978 488.31775092 152.73828125 488.20703125 C164.48861212 487.13143965 175.34967727 479.56752763 183 471 C183.78375 470.236875 184.5675 469.47375 185.375 468.6875 C202.65326175 450.99785107 214.33378238 429.95048599 225.79296875 408.203125 C227 406 227 406 228 405 C230.67058851 404.85884839 233.32432238 404.95752893 236 405 C237.48498409 411.92206871 236.39222906 415.72866102 233.1875 421.9375 C232.77951172 422.75943848 232.37152344 423.58137695 231.95117188 424.42822266 C225.73628601 436.75157511 218.64385457 448.43558047 210.6171875 459.65625 C208.90534579 461.66259074 208.90534579 461.66259074 209 463 C228.65205761 462.15109902 246.78748755 454.7647027 265 448 C265.30542725 448.94311035 265.61085449 449.8862207 265.92553711 450.85791016 C269.14908512 460.28464566 276.2512164 467.59698442 284.71875 472.609375 C294.54461264 477.31099745 304.86018177 477.53291217 315.25 474.4375 C329.97108004 468.7785902 338.61102155 459.62607263 345.45703125 445.72265625 C349.08737728 437.35317153 350.53295615 429.68007747 350.4375 420.5625 C350.42992676 419.54841064 350.42235352 418.53432129 350.41455078 417.48950195 C350.25635681 410.32747204 349.50401593 404.35307562 346 398 C345.57589844 397.14664062 345.15179688 396.29328125 344.71484375 395.4140625 C338.49930865 383.88329265 329.12215443 377.94355802 317 374 C316.98018066 373.37657715 316.96036133 372.7531543 316.93994141 372.11083984 C316.84281218 369.19857292 316.73392203 366.28684884 316.625 363.375 C316.57859375 361.90546875 316.57859375 361.90546875 316.53125 360.40625 C316.0217404 347.32883691 313.68513201 334.82561211 310.625 322.125 C310.31119308 320.80138635 309.9978837 319.47765464 309.68505859 318.15380859 C307.78849071 310.15507885 305.82764129 302.17412139 303.7265625 294.2265625 C302.88586907 290.49316051 302.41654551 286.79931346 302 283 C301.77763672 281.37578125 301.77763672 281.37578125 301.55078125 279.71875 C300.76818832 269.14733081 304.88934615 263.04548083 310.75634766 254.765625 C318.33382866 244.00780352 324.67876392 231.21236077 326 218 C326.11214844 217.20078125 326.22429687 216.4015625 326.33984375 215.578125 C326.57623332 212.84098262 326.61784681 210.68309701 326 208 C324.15617281 205.82856798 322.27864843 204.29461333 319.9453125 202.66796875 C316.8942804 200.05192316 316.14747767 197.09914579 315.62109375 193.17602539 C315.56050781 192.16016357 315.49992187 191.14430176 315.4375 190.09765625 C315.36418457 188.9669873 315.29086914 187.83631836 315.21533203 186.67138672 C315.10874268 184.88498779 315.10874268 184.88498779 315 183.0625 C313.77890013 158.03547128 313.77890013 158.03547128 306.25170898 134.38134766 C298.98798406 119.96636072 300.29234337 104.55647602 300.69421387 88.87115479 C300.85889431 82.24051462 300.96178755 75.60864738 301.046875 68.9765625 C301.06171779 67.91821449 301.06171779 67.91821449 301.07686043 66.83848572 C301.26982936 51.12931862 300.09350711 35.66612167 294 21 C293.69191406 20.25621094 293.38382812 19.51242188 293.06640625 18.74609375 C290.25232621 12.59248305 286.63962081 7.6044754 280.8125 4.0625 C270.89543864 1.2987288 262.92575877 3.10345829 254 8 C245.23799717 13.42656586 237.51046525 19.96892615 230 27 C227.38032056 29.32360695 224.75608502 31.64190903 222.12890625 33.95703125 C220.15249831 35.85365759 218.56588894 37.75941937 217 40 C211.95447584 39.37684761 207.86334701 37.10888228 203.375 34.875 C194.50433945 30.57230469 185.52309285 26.96297683 176.20214844 23.76123047 C174.18048333 23.06238881 172.17259973 22.33313996 170.1640625 21.59765625 C125.7490855 6.28054154 79.49848609 14.28314732 38.1875 34.3203125 C37.41011475 34.69551025 36.63272949 35.07070801 35.83178711 35.45727539 C34.35748796 36.17531221 32.88908805 36.90563739 31.42797852 37.65014648 C26.50154098 40.07734178 26.50154098 40.07734178 23.8737793 39.67211914 C21.53833296 38.83440138 20.74551765 37.83676727 19.25 35.875 C16.4731543 32.4578791 13.47107891 29.64786145 10.11328125 26.80859375 C8.7066294 25.60474938 7.32816738 24.36715186 5.98046875 23.09765625 C-4.25470326 13.50811661 -18.32872054 3.07169983 -32.6875 2.3125 C-41.0327976 2.68823615 -45.28787056 6.42877036 -50.1875 12.875 Z " fill="#020201" transform="translate(136,11)"/>
<path d="M0 0 C0.33 0 0.66 0 1 0 C1.04898438 0.56468994 1.09796875 1.12937988 1.1484375 1.71118164 C2.61166868 17.52763847 5.8831329 32.33035617 10.0625 47.59765625 C13.95269477 62.02698595 15.98834855 76.14397455 16.5625 91.0625 C16.60568359 92.11888672 16.64886719 93.17527344 16.69335938 94.26367188 C16.79837337 96.84234879 16.90052877 99.42110435 17 102 C17.75192627 102.23477051 18.50385254 102.46954102 19.27856445 102.71142578 C31.18527519 106.52253529 39.69275009 113.77605393 45.5078125 124.87890625 C51.61704223 137.98756775 52.66483378 154.49510927 47.875 168.3125 C41.87821713 183.50659593 33.1050544 194.37090063 18.15234375 201.32421875 C8.25706209 205.11985169 -2.29026369 205.76776837 -12.3125 202.0625 C-22.1713179 197.33875952 -29.37525274 189.88091757 -34 180 C-34.495 178.02 -34.495 178.02 -35 176 C-41.93 178.31 -48.86 180.62 -56 183 C-56.12569648 170.80744116 -56.12569648 170.80744116 -55.50219727 166.80224609 C-54.96385102 162.72630814 -54.85594654 158.73835544 -54.8671875 154.63671875 C-54.86623077 153.8458638 -54.86527405 153.05500885 -54.86428833 152.2401886 C-54.8636107 150.56857219 -54.86543577 148.89695309 -54.86962891 147.2253418 C-54.87490403 144.73284584 -54.86971093 142.2405367 -54.86328125 139.74804688 C-54.85033225 120.59612649 -56.4721487 102.22323606 -59.49145508 83.31347656 C-60.97509638 73.94580463 -62.27021678 64.68595113 -62.37109375 55.1875 C-62.38511734 54.47698486 -62.39914093 53.76646973 -62.41358948 53.03442383 C-62.35165191 45.70171257 -60.01958388 39.08405423 -54.91894531 33.71362305 C-48.59519833 28.0665009 -39.65980858 25.73492952 -31.75 23.1875 C-20.63048343 19.46729536 -9.7807016 15.04243152 -1 7 C-0.10944264 3.35817665 -0.10944264 3.35817665 0 0 Z " fill="#FDBD40" transform="translate(436,283)"/>
<path d="M0 0 C6.34397678 3.50943396 6.34397678 3.50943396 8.765625 5.3203125 C18.66521478 12.68464148 31.32793885 16.56182258 42.97998047 20.31298828 C51.14019007 23.08828799 57.10965186 27.4416382 61.16796875 35.24609375 C64.93917085 47.72824154 61.53661018 62.45995766 59.625 75.0625 C54.51639205 108.81381311 53.90656494 141.99278244 57 176 C52.00247298 174.9800405 47.26431785 173.90618531 42.5625 171.875 C39.38430414 170.43211516 39.38430414 170.43211516 36 170 C34.89322135 171.79477619 33.86560646 173.63858135 32.875 175.5 C27.23875646 185.3576276 20.48027075 191.47264836 10 196 C-1.3134249 199.05312626 -12.90018313 197.74982123 -23 192 C-36.88410715 183.14569461 -45.78929917 170.20556823 -49.60083008 154.23803711 C-52.35333747 138.8054773 -50.20156559 124.86747745 -41.8125 111.6875 C-35.65573214 103.49180253 -27.85271819 97.88002532 -18 95 C-17.34 95 -16.68 95 -16 95 C-16.01047363 94.40687012 -16.02094727 93.81374023 -16.03173828 93.20263672 C-16.39522321 69.42888209 -12.15860745 47.82269059 -5.8125 24.9375 C-4.11403973 18.80181229 -2.95734001 12.64666236 -1.95043945 6.36694336 C-1.09501282 1.09501282 -1.09501282 1.09501282 0 0 Z " fill="#FDBE40" transform="translate(76,290)"/>
<path d="M0 0 C10.70239924 6.60980177 18.00853217 16.79397418 21.54199219 28.84912109 C24.88857522 44.56521734 21.88228018 60.63287774 14.125 74.4375 C6.70515195 85.78329297 -2.59403269 93.41175844 -15.765625 97.3359375 C-26.56666623 99.55354258 -36.47872432 98.71543617 -46 93 C-53.22436796 87.79435613 -57.93618296 81.85850712 -62 74 C-62.598125 72.948125 -63.19625 71.89625 -63.8125 70.8125 C-68.95176069 58.64056679 -66.47053713 41.94469467 -61.875 29.9375 C-55.09395055 14.70008299 -43.95433717 3.92018889 -28.625 -2.375 C-18.692743 -5.70440446 -9.29243177 -4.72307058 0 0 Z " fill="#FDFDFB" transform="translate(464,389)"/>
<path d="M0 0 C1.05767578 0.10634766 1.05767578 0.10634766 2.13671875 0.21484375 C15.07368266 2.34310583 25.95318858 9.96052392 34 20 C39.43011052 27.65756402 43.24675772 35.72665238 45 45 C45.18304688 45.94230469 45.36609375 46.88460937 45.5546875 47.85546875 C47.66718951 62.77269787 45.57234709 74.5819557 37 87 C31.07200325 94.46627438 22.62714569 100.6755554 13 102 C-0.34051992 103.0228219 -10.6836812 101.11472927 -21.3359375 92.45703125 C-32.68583858 82.51920706 -40.77891025 69.82584382 -42.23706055 54.51000977 C-43.06863358 38.08909303 -41.25231017 24.80661761 -30 12 C-21.3267457 3.57497015 -12.22741376 -1.24447022 0 0 Z " fill="#FDFDFB" transform="translate(68,385)"/>
<path d="M0 0 C2.25244213 2.42299257 2.3521464 4.34656846 2.49609375 7.609375 C-0.26611203 16.75840047 -6.38103981 23.49857052 -13.50390625 29.609375 C-14.49390625 30.104375 -14.49390625 30.104375 -15.50390625 30.609375 C-14.43914062 30.81691406 -13.374375 31.02445313 -12.27734375 31.23828125 C0.88399008 33.96567917 14.35420652 38.06671472 23.49609375 48.609375 C25.53558374 52.11432634 25.98549779 54.53100803 25.49609375 58.609375 C23.20883999 62.92974321 21.02524241 65.66831129 16.49609375 67.609375 C11.11620879 68.41063446 8.80856534 66.6778644 4.49609375 63.609375 C-10.17262586 54.75381464 -28.03540909 53.62132792 -44.625 56.78125 C-51.3891547 58.726977 -57.41908018 62.31678973 -63.37890625 65.984375 C-66.88414943 67.80710145 -68.62040441 68.27039659 -72.50390625 67.609375 C-75.51076499 65.99029722 -77.76201415 64.55360132 -79.87890625 61.859375 C-80.87080366 58.28854434 -81.33689639 55.21681262 -80.50390625 51.609375 C-75.50698406 43.02945073 -65.60095834 37.79334323 -56.50390625 34.609375 C-51.85872185 33.49388408 -47.19133147 32.52912983 -42.50390625 31.609375 C-41.05371094 31.31933594 -41.05371094 31.31933594 -39.57421875 31.0234375 C-38.54941406 30.81847656 -38.54941406 30.81847656 -37.50390625 30.609375 C-38.49970703 29.75666016 -38.49970703 29.75666016 -39.515625 28.88671875 C-46.98600082 22.35422953 -53.54260232 16.3385025 -55.00390625 6.109375 C-54.50390625 2.609375 -54.50390625 2.609375 -52.31640625 -0.140625 C-39.14645395 -9.37788321 -13.4233891 -7.88657871 0 0 Z " fill="#020202" transform="translate(282.50390625,182.390625)"/>
<path d="M0 0 C4.52258886 2.01720511 8.71277696 4.5559846 12.9375 7.125 C14.06607422 7.79015625 15.19464844 8.4553125 16.35742188 9.140625 C34.12041326 19.68061989 34.12041326 19.68061989 37 24 C37.68343706 27.77688904 37.85107095 31.47186889 35.94921875 34.88671875 C34.17977487 37.04241292 32.5083344 38.7458328 30 40 C28.50243129 40.09499503 27.00057068 40.12987198 25.5 40.125 C24.7059375 40.12757813 23.911875 40.13015625 23.09375 40.1328125 C21 40 21 40 19 39 C19.01571045 39.6705542 19.0314209 40.3411084 19.04760742 41.03198242 C19.11014658 44.0837351 19.14905063 47.13535268 19.1875 50.1875 C19.21263672 51.24259766 19.23777344 52.29769531 19.26367188 53.38476562 C19.27333984 54.40634766 19.28300781 55.42792969 19.29296875 56.48046875 C19.3086792 57.41785889 19.32438965 58.35524902 19.34057617 59.32104492 C18.83427223 63.30360633 17.00996152 65.91522652 14.3125 68.8125 C10.91227283 70.5585626 7.69940181 70.53059149 4 70 C0.57932944 68.63173178 -0.67275133 67.52433658 -2.62231445 64.40063477 C-4.24633954 60.39194338 -4.33760846 56.95772045 -4.23046875 52.71484375 C-4.22837071 51.1165377 -4.22776451 49.51822912 -4.22851562 47.91992188 C-4.21399981 45.42197191 -4.18725298 42.92590814 -4.1340332 40.4284668 C-3.50395018 31.08634917 -3.50395018 31.08634917 -6.76416016 22.84960938 C-8.81576574 21.59464034 -10.74894813 20.81629661 -13 20 C-15.43457552 17.10894157 -15.94078201 15.35530794 -16.5625 11.625 C-15.81157392 6.7856986 -13.55075928 4.25639582 -10 1 C-6.62141122 -0.68929439 -3.62596178 -0.68737946 0 0 Z " fill="#020100" transform="translate(341,143)"/>
<path d="M0 0 C3.51732742 1.28517733 5.4770624 2.37247488 7.875 5.25 C9.33017877 8.80710366 9.46888682 11.18192158 9 15 C6.95805669 19.16556436 5.63945163 20.70315508 1.39746094 22.67236328 C-0.49235501 23.64318173 -0.49235501 23.64318173 -2 25 C-2.69424884 28.03198429 -2.89258767 30.02963765 -2.796875 33.0546875 C-2.80205139 33.83385529 -2.80722778 34.61302307 -2.81256104 35.415802 C-2.82444823 37.90349272 -2.78997103 40.38764616 -2.75 42.875 C-2.73119769 45.35449481 -2.7225379 47.83321823 -2.73028564 50.31277466 C-2.73294718 51.85326494 -2.71942777 53.39389619 -2.68719482 54.93405151 C-2.66825407 59.71972655 -3.42311333 62.95679641 -6 67 C-10.31410518 69.94143535 -13.82933754 70.65808431 -19 70 C-22.52584691 67.8061397 -24.47376396 65.83218888 -26 62 C-26.22705078 59.43457031 -26.22705078 59.43457031 -26.1953125 56.578125 C-26.18886719 55.55332031 -26.18242187 54.52851563 -26.17578125 53.47265625 C-26.15902344 52.40917969 -26.14226562 51.34570312 -26.125 50.25 C-26.11597656 49.17105469 -26.10695312 48.09210938 -26.09765625 46.98046875 C-26.07411305 44.32008722 -26.04122799 41.66015664 -26 39 C-26.99 39.495 -26.99 39.495 -28 40 C-31.79415519 40.53118173 -35.46331178 40.85089348 -38.890625 38.953125 C-41.0405787 37.17889137 -42.74635623 35.50728754 -44 33 C-44.35812784 27.53855038 -44.51671571 24.44323505 -41 20 C-38.21777774 18.00232183 -35.25615375 16.3847655 -32.25 14.75 C-30.53034151 13.79199353 -28.81160257 12.83233474 -27.09375 11.87109375 C-26.23652344 11.39397949 -25.37929687 10.91686523 -24.49609375 10.42529297 C-22.17554014 9.10023507 -19.91154646 7.71781547 -17.65625 6.28515625 C-16.99334961 5.86717773 -16.33044922 5.44919922 -15.64746094 5.01855469 C-14.41926834 4.23789701 -13.19798243 3.44621939 -11.98535156 2.64160156 C-7.84706237 0.04469944 -4.83722159 -0.46068777 0 0 Z " fill="#020100" transform="translate(178,143)"/>
<path d="M0 0 C3.49982442 2.18739026 6.27094975 4.08792092 8 7.875 C9.00260546 13.70594226 8.77300464 19.37689347 5.40234375 24.37890625 C2.70274749 27.25897691 -0.52104172 29.07578117 -4 30.875 C-4.78375 31.308125 -5.5675 31.74125 -6.375 32.1875 C-12.95991023 33.91211935 -19.29315307 33.64421039 -25.23828125 30.1953125 C-29.00449789 27.37273773 -31.40456801 24.36126946 -32.51171875 19.73828125 C-32.94887882 14.17177639 -31.20037346 10.2999436 -27.8828125 5.89453125 C-20.62808906 -1.88698746 -10.00286667 -3.62549316 0 0 Z " fill="#FEBF43" transform="translate(85,441.125)"/>
<path d="M0 0 C5.59586261 3.07898287 9.78386277 6.86367263 12.04296875 12.93359375 C13.05447002 18.20926704 11.98791962 22.46539243 9.04296875 26.93359375 C4.5639548 31.29155326 -0.04040903 32.96939477 -6.20703125 33.37109375 C-12.61527432 33.19819006 -18.24718568 30.48984483 -22.88671875 26.11328125 C-27.39125066 20.96216582 -28.37279084 17.5761344 -28.30078125 10.69921875 C-27.75162981 6.28104579 -26.30352755 4.84359054 -22.95703125 1.93359375 C-15.84705889 -2.24578094 -7.80019547 -2.81301633 0 0 Z " fill="#FEBE42" transform="translate(446.95703125,441.06640625)"/>
<path d="M0 0 C1.59375 1.16796875 1.59375 1.16796875 3.59375 4.16796875 C4.05487012 8.85602327 4.08373541 11.18799793 1.96875 15.41796875 C-2.85561414 21.0040746 -8.29683009 23.65881327 -15.640625 24.390625 C-20.64962785 24.58392545 -24.14173991 24.0440337 -28.40625 21.16796875 C-31.12919331 18.51668184 -32.26666438 16.98803428 -32.90625 13.23046875 C-32.10271787 8.30883445 -29.6593604 5.35334345 -26.09375 1.98046875 C-17.57150714 -3.76709039 -9.23887289 -4.94128242 0 0 Z " fill="#FEFDFA" transform="translate(319.40625,110.83203125)"/>
<path d="M0 0 C4.06793405 2.38857312 6.98164464 5.33192485 9.375 9.39453125 C10.34517443 14.08370766 9.8323473 15.68160752 7.25 19.70703125 C2.75277497 23.910959 -1.34523007 24.82462521 -7.4765625 24.6484375 C-14.88178298 23.77327508 -20.7274072 20.991543 -25.4375 15.14453125 C-27.01888428 11.48237818 -27.70186835 8.25017179 -26.625 4.39453125 C-19.57187221 -4.33253887 -9.67337358 -4.27744488 0 0 Z " fill="#FEFDFA" transform="translate(215.625,110.60546875)"/>
<path d="M0 0 C6.36631019 0.15915775 9.80644466 3.61700274 14 8 C15.822222 10.27009343 17.40519826 12.55795983 19 15 C18.29875 15.54527344 17.5975 16.09054688 16.875 16.65234375 C7.48214415 24.11813271 0.21348156 32.46467906 -7 42 C-11.26308704 35.60536944 -9.67789257 24.56168421 -8.27734375 17.203125 C-6.41443595 10.7772244 -3.85246811 5.45766315 0 0 Z " fill="#FEFDFA" transform="translate(108,46)"/>
<path d="M0 0 C1.73046875 2.22265625 1.73046875 2.22265625 3.1875 5.0625 C3.67605469 5.98160156 4.16460937 6.90070312 4.66796875 7.84765625 C7.65242312 14.91057319 8.32094897 21.23869767 8.25 28.8125 C8.25773437 29.65748047 8.26546875 30.50246094 8.2734375 31.37304688 C8.27085937 32.18451172 8.26828125 32.99597656 8.265625 33.83203125 C8.26336914 34.56139893 8.26111328 35.2907666 8.25878906 36.04223633 C8 38 8 38 6 41 C5.20078125 39.97261719 4.4015625 38.94523437 3.578125 37.88671875 C-3.34760953 29.10669177 -10.47955944 21.24621251 -19 14 C-16.79403727 7.67551573 -12.61359642 3.99131156 -7.375 0 C-4.34971906 -1.2738025 -3.08728504 -1.0637659 0 0 Z " fill="#FEFDFA" transform="translate(405,47)"/>
<path d="M0 0 C2.78789259 0.87619481 3.85321606 1.82700464 5.75 4.0625 C7.48263814 8.13419962 7.69230396 11.63848505 7 16 C4.80328355 20.3934329 2.54102011 23.05384852 -2 25 C-5 25.5 -5 25.5 -8 25 C-11.10164769 22.44975635 -12.72566416 20.82300753 -14 17 C-14.50171564 10.87906919 -14.08833623 7.8832905 -10 3 C-6.80052827 -0.19947173 -4.4580679 -0.46438207 0 0 Z " fill="#FEBF45" transform="translate(453,403)"/>
<path d="M0 0 C4.22798746 1.54719831 6.18344801 4.84345852 8.15625 8.7890625 C8.53089112 14.4086793 8.29234371 17.9106945 5.15625 22.7890625 C1.4188644 25.2806529 -0.41706583 25.24699535 -4.84375 24.7890625 C-9.54746788 22.11649552 -11.32989811 18.91933834 -12.84375 13.7890625 C-13.12405282 8.98269361 -12.45033616 5.73685338 -9.84375 1.6640625 C-6.17924823 -0.6262511 -4.18450237 -0.7113654 0 0 Z " fill="#FEBF44" transform="translate(64.84375,403.2109375)"/>
<path d="M0 0 C3.35036315 2.18163182 5.78564199 4.13613359 7 8 C7.33931132 11.73242456 7.2393751 14.35227915 5.9375 17.875 C4 20 4 20 0.6875 21.125 C-4.15005845 20.96101497 -5.70561565 19.44761153 -9 16 C-11.30528944 12.75163761 -11.48082698 9.92675367 -11 6 C-7.87998678 1.31998016 -5.70959142 -0.66390598 0 0 Z " fill="#FEC047" transform="translate(49,424)"/>
<path d="M0 0 C3.23573179 3.02001634 4.7487664 4.66008744 5.5625 9 C4.69164083 13.64458226 2.4176797 16.6280519 -0.9375 19.875 C-3.63034159 21.34382268 -4.97438146 21.59036459 -8 21 C-10.8125 19 -10.8125 19 -13 16 C-13.70527547 11.06307168 -13.54461594 9.05033074 -11.25 4.625 C-7.9888085 0.82027658 -5.10166927 -0.99544766 0 0 Z " fill="#FEC047" transform="translate(469,424)"/>
<path d="M0 0 C4.98313215 5.25249064 4.98313215 5.25249064 5.01953125 9.0234375 C4.69155891 12.7487082 4.40288489 15.36468153 2.375 18.5625 C-0.97719234 20.59145852 -3.15251431 20.54964081 -7 20 C-9.90717073 17.78136971 -10.83981643 16.48055071 -12 13 C-12.57279236 5.8973747 -12.57279236 5.8973747 -10.125 2.0625 C-6.58265657 -1.37565686 -4.72521619 -1.32306053 0 0 Z " fill="#FEBF44" transform="translate(90,415)"/>
<path d="M0 0 C2.58611521 2.17778123 3.80401622 3.78446013 4.34765625 7.15625 C4.52917293 11.89146773 4.08376517 15.20459672 1 19 C-2.12860495 20.56430248 -4.55602925 20.35627284 -8 20 C-10.84142547 17.8142881 -11.81568909 16.15906862 -12.37890625 12.6171875 C-12.58059028 8.25821017 -12.43780834 5.71508695 -10.125 1.9375 C-6.52796696 -1.34214778 -4.67533061 -1.30909257 0 0 Z " fill="#FEBF43" transform="translate(430,415)"/>
</svg>
