<?xml version="1.0" encoding="UTF-8"?>
<svg version="1.1" xmlns="http://www.w3.org/2000/svg" width="1024" height="1024">
<path d="M0 0 C337.92 0 675.84 0 1024 0 C1024 337.92 1024 675.84 1024 1024 C686.08 1024 348.16 1024 0 1024 C0 686.08 0 348.16 0 0 Z " fill="#FEFEFE" transform="translate(0,0)"/>
<path d="M0 0 C1.74292177 1.74292177 1.11980303 4.00623495 1.12442017 6.32824707 C1.12082489 7.09141235 1.11722961 7.85457764 1.11352539 8.64086914 C1.11367142 9.44080795 1.11381744 10.24074677 1.1139679 11.06492615 C1.11326855 13.72169665 1.10547518 16.37839793 1.09765625 19.03515625 C1.09579215 20.87218691 1.09436821 22.70921806 1.09336853 24.54624939 C1.08954275 29.39109662 1.07971196 34.23591408 1.06866455 39.08074951 C1.05845172 44.02062578 1.05387119 48.96050685 1.04882812 53.90039062 C1.03808974 63.60027353 1.0210126 73.30013429 1 83 C2.29433456 82.93016907 3.58866913 82.86033813 4.92222595 82.78839111 C14.57614001 82.278869 24.20952789 81.83811382 33.87890625 81.796875 C34.98193588 81.79117493 36.08496552 81.78547485 37.22142029 81.77960205 C39.51731448 81.77029661 41.81322115 81.76367716 44.10913086 81.75976562 C47.56192609 81.75000162 51.01413859 81.71881441 54.46679688 81.6875 C88.53904945 81.52153973 88.53904945 81.52153973 102.0625 88.625 C102.75456543 88.96909912 103.44663086 89.31319824 104.15966797 89.66772461 C110.31759254 92.87350584 115.18263923 97.01841102 120 102 C120.928125 102.80824219 120.928125 102.80824219 121.875 103.6328125 C127.86356823 108.95301374 131.3356583 115.99934719 135 123 C135.63808594 124.21236328 135.63808594 124.21236328 136.2890625 125.44921875 C141.39124014 135.98463136 142.53881852 147.31591343 142.4375 158.875 C142.42920166 160.10226807 142.42090332 161.32953613 142.41235352 162.59399414 C142.04077438 182.54422359 134.86325065 198.78129615 120.9140625 213.1484375 C106.67003448 226.56970578 86.90969219 233.8221581 67.3515625 233.3125 C61.56097465 232.54298666 57.2814408 230.50569294 53.5 226.0625 C49.19168404 217.26635492 50.76263748 207.88844882 52.953125 198.6640625 C54.23620325 195.39891562 55.13509077 194.06237597 58 192 C61.17597554 190.9478873 64.41346165 190.2981807 67.6875 189.625 C78.00350425 187.27203307 85.93642545 184.18198432 92 175 C96.40518096 166.088203 97.57289499 156.98187658 95 147.3125 C92.5659967 141.08597994 88.28838869 135.78963283 82.39453125 132.58203125 C79.94649966 131.58039942 77.5421902 130.72634006 75 130 C74.43641785 129.8238063 73.87283569 129.64761261 73.29217529 129.46607971 C70.17646568 128.83254656 67.20793112 128.880837 64.02832031 128.88647461 C62.98868889 128.88625557 62.98868889 128.88625557 61.92805481 128.8860321 C59.64471267 128.88672693 57.36145283 128.89449915 55.078125 128.90234375 C53.49200485 128.90420946 51.90588412 128.90563264 50.31976318 128.90663147 C46.15063885 128.91044462 41.9815495 128.92026463 37.81243896 128.93133545 C33.55595371 128.94157543 29.29946278 128.94613463 25.04296875 128.95117188 C16.69529647 128.96188798 8.34765259 128.97894996 0 129 C0.03029297 130.20043945 0.06058594 131.40087891 0.09179688 132.63769531 C0.74694942 159.13552544 1.09637228 185.61994017 1.0625 212.125 C1.06164398 212.79966812 1.06078796 213.47433624 1.05990601 214.16944885 C1.04861498 222.44632655 1.02868886 230.72316487 1 239 C-3.36723468 240.33543045 -6.71092231 239.24745981 -11 238.0625 C-18.98924997 235.96208224 -27.01221017 234.0651402 -35.07925415 232.2911377 C-35.85404051 232.12067114 -36.62882687 231.95020458 -37.4270916 231.77457237 C-38.96235871 231.43695358 -40.49765151 231.09945157 -42.03297615 230.7620945 C-52.97466197 228.35630089 -63.89869971 225.88388788 -74.81017303 223.34477425 C-89.19558348 220.00025614 -103.59565647 216.7273322 -118.015625 213.53515625 C-118.83954931 213.35276209 -119.66347363 213.17036793 -120.51236534 212.98244667 C-124.70773064 212.05414466 -128.90336368 211.12705892 -133.09912109 210.20053101 C-158.5126858 204.58755467 -183.91397384 198.93679205 -209.25057983 192.98468018 C-210.05218536 192.79637634 -210.85379089 192.60807251 -211.6796875 192.4140625 C-212.48024567 192.2259198 -213.28080383 192.0377771 -214.10562134 191.84393311 C-226.09993908 189.03090579 -238.11338954 186.30053258 -250.125 183.5625 C-251.33452332 183.28671112 -252.54404663 183.01092224 -253.79022217 182.72677612 C-271.74543986 178.63453464 -289.71075816 174.58858043 -307.68164062 170.56576538 C-325.07993515 166.66997343 -342.45833716 162.69317758 -359.8260498 158.66342163 C-368.40439487 156.67306434 -376.9853794 154.69417131 -385.56634521 152.71514893 C-388.03661786 152.14538517 -390.5068458 151.57542811 -392.97705078 151.00537109 C-394.1295784 150.73987961 -394.1295784 150.73987961 -395.3053894 150.46902466 C-396.79565846 150.1244337 -398.28536357 149.77739306 -399.77444458 149.42770386 C-403.12940526 148.6425695 -406.47439117 147.9081475 -409.85839844 147.25292969 C-411.01629883 147.02250977 -412.17419922 146.79208984 -413.3671875 146.5546875 C-414.3660498 146.37147949 -415.36491211 146.18827148 -416.39404297 145.99951172 C-419.94087178 144.63912975 -421.12098453 143.30240398 -423 140 C-423.342908 137.00656068 -423.46916655 134.3987739 -423.390625 131.41796875 C-423.38496521 130.60378983 -423.37930542 129.7896109 -423.37347412 128.95075989 C-423.35116774 126.36239647 -423.30098445 123.7754416 -423.25 121.1875 C-423.22992747 119.42775444 -423.21167802 117.66798707 -423.1953125 115.90820312 C-423.15132207 111.60492995 -423.08233627 107.3027034 -423 103 C-415.71685629 100.43922908 -408.37126889 98.51577435 -400.87109375 96.69921875 C-398.91167558 96.2194864 -396.95225796 95.73975175 -394.9928627 95.25992584 C-392.91098956 94.75081889 -390.82868671 94.24350631 -388.74624634 93.73672485 C-382.13408418 92.12742594 -375.5246205 90.507099 -368.91499138 88.88743401 C-367.41007839 88.51871767 -365.90513052 88.15014369 -364.40014839 87.78170967 C-350.83040703 84.45960261 -337.27647302 81.07710614 -323.72756958 77.67092896 C-303.03791781 72.4702747 -282.32073087 67.39914282 -261.57443237 62.42941284 C-247.15817424 58.97542171 -232.75346791 55.48329919 -218.375 51.875 C-217.19118744 51.57796677 -217.19118744 51.57796677 -215.98345947 51.27493286 C-211.17923866 50.06866681 -206.37587641 48.85900734 -201.57275391 47.64837646 C-193.95765987 45.72924703 -186.34163622 43.81385122 -178.72442627 41.90313721 C-175.99594781 41.2178762 -173.2682165 40.52970338 -170.54052734 39.84130859 C-161.82361164 37.64944078 -153.0952372 35.54685179 -144.32421875 33.58203125 C-131.80661451 30.7747306 -119.37494014 27.64050137 -106.9375 24.5 C-102.5095405 23.38371855 -98.08117588 22.26906431 -93.65234375 21.15625 C-92.02800415 20.7481031 -92.02800415 20.7481031 -90.37084961 20.33171082 C-82.94711262 18.47243906 -75.50978705 16.67958015 -68.06111145 14.92329407 C-60.89376456 13.22745939 -53.74699097 11.45367651 -46.6015625 9.66796875 C-44.28649823 9.0916366 -41.97139388 8.51546541 -39.65625 7.93945312 C-36.1092953 7.05692052 -32.56305027 6.17190353 -29.01855469 5.27954102 C-25.52722111 4.4014825 -22.03344454 3.5338039 -18.5390625 2.66796875 C-17.48175934 2.39929489 -16.42445618 2.13062103 -15.33511353 1.85380554 C-10.10142234 0.56681794 -5.39567635 -0.43534457 0 0 Z " fill="#288ED6" transform="translate(698,327)"/>
<path d="M0 0 C1.67045831 0.40974983 3.34128544 0.81799856 5.01245117 1.22485352 C7.64179548 1.86503482 10.27090731 2.50602494 12.89897156 3.15144348 C21.78825724 5.33244077 30.70466953 7.39046889 39.62426758 9.4432373 C54.77754761 12.93395521 69.89940165 16.53827801 85 20.25 C105.2630647 25.23003689 125.57922061 29.96639793 145.9609375 34.4375 C147.22562866 34.7152124 147.22562866 34.7152124 148.51586914 34.99853516 C150.57859278 35.44892682 152.64272692 35.8928471 154.70703125 36.3359375 C157.88611246 37.09771022 160.90182944 38.08827367 164 39.125 C167.80933433 40.04810853 171.62205927 40.95123522 175.44140625 41.83203125 C179.97405289 43.47890945 182.70157712 45.47029246 184.86015004 49.88363105 C186.71634764 54.64730495 187.37488747 58.66169647 187.3742218 63.83305359 C187.37819621 64.56575606 187.38217061 65.29845852 187.38626546 66.0533641 C187.3958186 68.48589302 187.38411303 70.91783006 187.37231445 73.3503418 C187.37474484 75.10380774 187.37846654 76.85727229 187.38337708 78.61073303 C187.3927594 83.35898906 187.3833811 88.10703796 187.37004495 92.85527778 C187.35869357 97.83799234 187.36284104 102.82069724 187.36479187 107.80342102 C187.36567409 116.17521528 187.35461291 124.54692846 187.33618164 132.91870117 C187.31504973 142.57186767 187.31149726 152.22491516 187.3177436 161.8781001 C187.32345813 171.18886351 187.31776483 180.49958537 187.30657005 189.81034279 C187.30194812 193.76015816 187.30103978 197.70994792 187.3031559 201.65976524 C187.3050532 206.32278815 187.29682518 210.98569167 187.2810955 215.64868736 C187.27688743 217.35092678 187.27597837 219.05317838 187.27878571 220.75542068 C187.31750644 248.45652098 187.31750644 248.45652098 181 255.125 C175.89939623 258.7682884 171.02922914 258.68828438 165 258.125 C159.57575277 257.01599697 154.26778895 255.55139928 148.9375 254.0625 C147.42728309 253.65049805 145.91678123 253.23953923 144.40600586 252.82958984 C140.63819267 251.80354806 136.87479307 250.7623774 133.11315918 249.71392822 C131.12836661 249.16077521 129.14282182 248.6103233 127.15722656 248.06005859 C121.88347669 246.597864 116.61293208 245.12523343 111.34765625 243.6328125 C110.50220717 243.40018015 109.6567581 243.1675478 108.78568935 242.92786598 C107.10340276 242.44301268 105.4301965 241.92185209 103.781106 241.3339138 C94.32000012 238.19438839 84.66018774 238.72238804 74.81616211 238.77197266 C72.78152874 238.77114077 70.74689555 238.76892121 68.71226501 238.76542664 C64.34875133 238.76049575 59.98537252 238.7645368 55.62187004 238.77544022 C48.71657184 238.79186056 41.81144107 238.78330804 34.90614319 238.77059937 C16.51669238 238.74054018 -1.87272736 238.74194679 -20.26219028 238.76085222 C-32.3574091 238.77319368 -44.4524372 238.77130549 -56.54763407 238.74246442 C-63.40679429 238.72725587 -70.26543565 238.73467502 -77.12456334 238.75917459 C-81.39601367 238.76926555 -85.66722745 238.75853213 -89.93865013 238.74205971 C-91.91307104 238.73861681 -93.88752865 238.74366771 -95.86190033 238.75802803 C-116.81417491 238.90094366 -116.81417491 238.90094366 -124.62088108 231.61152077 C-129.46818345 226.16705044 -130.3438182 221.9625756 -130.18359375 214.875 C-129.80125442 209.14804498 -128.46681598 204.78849758 -124.546875 200.4765625 C-116.44002878 193.39330797 -106.24223527 193.97245437 -96.09790039 193.91967773 C-94.32609406 193.90482834 -94.32609406 193.90482834 -92.51849365 193.88967896 C-89.29794904 193.86360469 -86.07740915 193.84169631 -82.85682225 193.82167697 C-79.48422872 193.79971543 -76.11167877 193.77237679 -72.73912048 193.74562073 C-66.36096181 193.69583064 -59.98277877 193.65084142 -53.60457271 193.60759836 C-46.33970727 193.55810856 -39.07488558 193.50323422 -31.81006253 193.44791877 C-16.87341585 193.33430898 -1.93672789 193.22742473 13 193.125 C14.10844919 189.79965243 13.84454356 187.50317425 13 184.125 C12.35285034 184.12868717 11.70570068 184.13237434 11.03894043 184.13617325 C-4.72791767 184.22461794 -20.49468915 184.290755 -36.26173401 184.33224869 C-43.88665695 184.35284953 -51.51141401 184.38092243 -59.13623047 184.42675781 C-65.78419039 184.46670183 -72.43203014 184.49245082 -79.08010674 184.50135398 C-82.59831499 184.50655603 -86.11617955 184.51873018 -89.63427734 184.54792023 C-93.56744697 184.58028765 -97.50028431 184.58095455 -101.43359375 184.57910156 C-102.59237534 184.59348267 -103.75115692 184.60786377 -104.9450531 184.62268066 C-112.40423744 184.5846891 -118.29173341 183.78602753 -123.83984375 178.30859375 C-124.20207031 177.73238281 -124.56429688 177.15617188 -124.9375 176.5625 C-125.50791016 175.69431641 -125.50791016 175.69431641 -126.08984375 174.80859375 C-128.88914962 169.63047859 -128.54485483 163.83840826 -128 158.125 C-125.50407778 152.94827243 -121.89071971 149.48052861 -116.67638874 147.0354023 C-113.83081693 146.06745057 -111.61339281 145.85041127 -108.61528015 145.80856323 C-107.54822342 145.7889856 -106.48116669 145.76940796 -105.3817749 145.74923706 C-104.22155823 145.73772614 -103.06134155 145.72621521 -101.8659668 145.71435547 C-100.63628677 145.69455627 -99.40660675 145.67475708 -98.1396637 145.65435791 C-94.77645161 145.60208082 -91.41333194 145.55831738 -88.04996467 145.51835394 C-84.53180865 145.47453254 -81.01382258 145.41980513 -77.49580383 145.36624146 C-70.83786161 145.26652464 -64.17982472 145.17659654 -57.52169782 145.09019673 C-49.93999386 144.99133445 -42.35846048 144.88154198 -34.77692163 144.77083755 C-19.18477215 144.54340803 -3.59246565 144.32968464 12 144.125 C12.76522801 140.77041845 12.76522801 140.77041845 13 137.125 C11.89415177 135.30906351 11.89415177 135.30906351 10 134.125 C7.72249984 133.6907914 7.72249984 133.6907914 5.14413452 133.78442383 C4.14331848 133.78463531 3.14250244 133.7848468 2.11135864 133.7850647 C1.01419525 133.80056366 -0.08296814 133.81606262 -1.21337891 133.83203125 C-2.36978882 133.83641205 -3.52619873 133.84079285 -4.71765137 133.8453064 C-7.23367765 133.85673862 -9.74967963 133.87510333 -12.26561356 133.89950562 C-16.25051328 133.93772974 -20.2352706 133.95776337 -24.2203064 133.97192383 C-33.40670123 134.00806416 -42.59283676 134.07404013 -51.77905273 134.14060974 C-60.18309429 134.20125709 -68.58704489 134.25547516 -76.99125993 134.28525448 C-81.5815448 134.30252483 -86.17129622 134.34323556 -90.76138306 134.38793945 C-93.17766947 134.39884322 -95.59395992 134.40889764 -98.01025391 134.41796875 C-99.09527191 134.43346771 -100.18028992 134.44896667 -101.29818726 134.4649353 C-110.3021971 134.46680635 -117.89058151 133.05405819 -124.55859375 126.7109375 C-129.02773793 121.79366776 -129.48984255 117.15640853 -129.28125 110.7421875 C-128.72624916 105.57759638 -126.8422803 102.94856296 -123.1875 99.375 C-116.37100096 94.56335362 -109.77634746 94.79928406 -101.70825195 94.73022461 C-100.47349121 94.71203171 -99.23873047 94.69383881 -97.96655273 94.6750946 C-95.29013527 94.63700294 -92.61394234 94.60236629 -89.93743324 94.5737133 C-85.70595587 94.52834865 -81.47473386 94.46937378 -77.24345398 94.40858459 C-70.55369213 94.31406006 -63.86385136 94.22844551 -57.17392176 94.14673859 C-45.18428489 94.00022648 -33.19479551 93.84296166 -21.20542878 93.67581373 C-16.9981022 93.61756949 -12.79075176 93.56467619 -8.58330309 93.51607692 C-5.35667648 93.47777146 -2.13012945 93.43352559 1.09643555 93.39038086 C2.84743309 93.37243469 2.84743309 93.37243469 4.63380432 93.35412598 C5.69785492 93.33881332 6.76190552 93.32350067 7.85820007 93.307724 C8.78418345 93.29649474 9.71016684 93.28526548 10.66421032 93.27369595 C13.1559132 93.21487223 13.1559132 93.21487223 16 92.125 C16.33 90.475 16.66 88.825 17 87.125 C16.31493063 87.12776538 15.62986126 87.13053076 14.92403221 87.13337994 C-1.75176489 87.19965753 -18.42752023 87.2492892 -35.10341835 87.28043652 C-43.16778928 87.29589982 -51.23207225 87.31697903 -59.29638672 87.35131836 C-66.32594276 87.38123721 -73.35543509 87.40057891 -80.38505304 87.40726548 C-84.10657093 87.41117355 -87.82790656 87.42034672 -91.549366 87.44219017 C-95.70568142 87.46638776 -99.86168076 87.4669684 -104.01806641 87.46557617 C-105.24949371 87.476362 -106.48092102 87.48714783 -107.74966431 87.4982605 C-114.40356647 87.47409957 -119.4955103 87.32149417 -124.64453125 82.625 C-129.93795435 75.82675763 -129.6089736 69.49838705 -129 61.125 C-127.78355102 54.95234337 -125.6940938 51.18210737 -120.5 47.5625 C-115.28436832 44.40990071 -111.0639971 43.99362999 -104.99121094 43.90431213 C-104.28439808 43.89261818 -103.57758522 43.88092423 -102.84935379 43.86887592 C-100.47774027 43.83075603 -98.10608502 43.79932074 -95.734375 43.76782227 C-94.03132498 43.74177879 -92.32828143 43.71530919 -90.62524414 43.68844604 C-86.94335315 43.63122939 -83.26143446 43.57692854 -79.57946777 43.5248127 C-73.67952311 43.44115237 -67.77970334 43.35023284 -61.87988281 43.25828552 C-48.20472324 43.04625051 -34.52943138 42.84332096 -20.85412598 42.64094543 C-5.48599374 42.41348134 9.88206478 42.18184071 25.25 41.94140625 C26.25053909 41.92582814 27.25107819 41.91025002 28.28193665 41.89419985 C65.53300166 41.31241319 102.76575892 40.38336327 140 39.125 C139.13362821 39.12537703 138.26725641 39.12575405 137.37463093 39.1261425 C116.30112588 39.13325728 95.227887 39.10738411 74.15446949 39.0447216 C63.96352086 39.01521533 53.77278101 38.99690522 43.58178711 39.00488281 C34.70006119 39.01180717 25.81865832 38.99779552 16.9370119 38.95856392 C12.23343525 38.93852075 7.53036606 38.92901582 2.82676125 38.94457626 C-1.60006353 38.95889043 -6.02591797 38.94522306 -10.45261765 38.91004753 C-12.07757016 38.90207571 -13.70261004 38.9043469 -15.327528 38.91760826 C-17.54711545 38.93419165 -19.76344829 38.91392787 -21.98283386 38.88449097 C-23.22448901 38.88264738 -24.46614416 38.88080379 -25.74542522 38.87890434 C-30.33302877 37.81621122 -31.35328986 35.95529232 -34 32.125 C-38.3965124 24.17600481 -39.36045028 15.03794999 -38 6.125 C-29.25766999 -9.29727318 -14.26722574 -3.58650903 0 0 Z " fill="#FEBF90" transform="translate(473,546.875)"/>
<path d="M0 0 C1.39169389 1.16789099 2.76739376 2.35515309 4.125 3.5625 C4.79917969 4.13226563 5.47335937 4.70203125 6.16796875 5.2890625 C17.81125216 15.8738656 24.50274735 32.16411604 25.28125 47.67578125 C25.72708376 64.67319347 20.53115638 78.02381746 9.125 90.5625 C2.74889949 97.03168227 -4.4895332 102.43931492 -11.81030273 107.7824707 C-19.32267767 113.36485407 -26.30573477 119.99406376 -27.875 129.5625 C-27.99391556 131.36513285 -28.07403606 133.17062461 -28.12109375 134.9765625 C-28.15396484 135.98460937 -28.18683594 136.99265625 -28.22070312 138.03125 C-28.28212489 140.14311309 -28.33938676 142.25510109 -28.39257812 144.3671875 C-28.42673828 145.37265625 -28.46089844 146.378125 -28.49609375 147.4140625 C-28.53367798 148.78812256 -28.53367798 148.78812256 -28.57202148 150.18994141 C-28.875 152.5625 -28.875 152.5625 -30.875 155.5625 C-33.47615556 155.85451724 -35.83591152 155.9587335 -38.4375 155.92578125 C-39.18459229 155.92627975 -39.93168457 155.92677826 -40.70141602 155.92729187 C-42.28176532 155.92495023 -43.86211827 155.91521631 -45.44238281 155.89868164 C-47.86557251 155.87509178 -50.28766222 155.8781191 -52.7109375 155.88476562 C-54.24479825 155.87918886 -55.77865435 155.87207899 -57.3125 155.86328125 C-58.03961182 155.86419266 -58.76672363 155.86510406 -59.51586914 155.86604309 C-64.64397017 155.79352983 -64.64397017 155.79352983 -66.875 153.5625 C-68.75995817 137.16336391 -68.79218382 116.90424253 -59.4375 102.625 C-54.46616854 96.52843211 -48.23804476 92.07749524 -41.875 87.5625 C-30.82079113 79.63758349 -21.20946303 71.97942444 -16.875 58.5625 C-15.71316604 51.34520884 -15.43200033 42.60065672 -19.41796875 36.234375 C-25.47490289 29.28432724 -32.46116867 25.01459447 -41.6171875 24.25 C-49.35560771 23.92208536 -56.23418138 24.18121303 -62.875 28.5625 C-63.49632812 28.95179688 -64.11765625 29.34109375 -64.7578125 29.7421875 C-72.89535534 35.69562793 -76.27829899 45.98229397 -77.875 55.5625 C-85.21356604 57.32173142 -92.21438275 57.92773884 -99.75 57.9375 C-100.76835937 57.96199219 -101.78671875 57.98648438 -102.8359375 58.01171875 C-110.12791542 58.04050287 -110.12791542 58.04050287 -113.54296875 55.85546875 C-116.79987608 50.24900364 -115.20466649 43.14134988 -113.6875 37.125 C-113.11306855 35.26140672 -112.50779745 33.40709176 -111.875 31.5625 C-111.54628906 30.593125 -111.21757812 29.62375 -110.87890625 28.625 C-104.23617939 10.97235561 -91.14133167 -1.08516067 -74.5 -9.1875 C-50.020908 -19.6048664 -21.24717441 -15.90814084 0 0 Z " fill="#2C2C2D" transform="translate(548.875,128.4375)"/>
<path d="M0 0 C1.67045831 0.40974983 3.34128544 0.81799856 5.01245117 1.22485352 C7.64179548 1.86503482 10.27090731 2.50602494 12.89897156 3.15144348 C21.78825724 5.33244077 30.70466953 7.39046889 39.62426758 9.4432373 C55.63210776 13.13081215 71.60286264 16.95350158 87.55404663 20.87844849 C101.1117598 24.21237656 114.69782905 27.3966999 128.32421875 30.43798828 C137.28296374 32.44635591 146.14755375 34.69482334 155 37.125 C155 37.455 155 37.785 155 38.125 C131.09582145 38.26509891 107.19170433 38.37093623 83.28719807 38.43587303 C72.18815203 38.46682441 61.08936093 38.50902962 49.99047852 38.57763672 C40.31781938 38.63739925 30.64534485 38.67613981 20.97250623 38.68953097 C15.84967175 38.69736005 10.72736544 38.71578688 5.60470009 38.75938034 C0.78407111 38.80007157 -4.03581159 38.8126761 -8.85659599 38.80364609 C-10.62673751 38.8052983 -12.39690368 38.81725424 -14.16689682 38.84023285 C-16.58330869 38.87006765 -18.99689943 38.86292127 -21.41337585 38.8465271 C-22.46543127 38.87274267 -22.46543127 38.87274267 -23.53874034 38.89948785 C-26.28672276 38.84905277 -28.39337063 38.63918897 -30.53059161 36.82764554 C-37.39821536 28.77028794 -38.44473245 19.86861258 -38.53125 9.60546875 C-37.73063545 4.36026608 -35.26435157 1.29683804 -31.4375 -2.25 C-21.63364408 -6.88455007 -9.97214003 -2.50680622 0 0 Z " fill="#268CD6" transform="translate(473,546.875)"/>
<path d="M0 0 C1.16789062 0.00064453 2.33578125 0.00128906 3.5390625 0.00195312 C5.37210937 0.02612305 5.37210937 0.02612305 7.2421875 0.05078125 C8.44101562 0.04755859 9.63984375 0.04433594 10.875 0.04101562 C17.59816112 0.081561 23.6230122 0.61055222 30.1171875 2.36328125 C31.77515838 7.72667235 31.30316194 13.38898243 31.30249023 18.9453125 C31.30468772 20.98848976 31.32289762 23.03113612 31.34179688 25.07421875 C31.34373047 26.358125 31.34566406 27.64203125 31.34765625 28.96484375 C31.35176514 30.14385254 31.35587402 31.32286133 31.36010742 32.53759766 C31.1171875 35.36328125 31.1171875 35.36328125 29.1171875 37.36328125 C26.49954755 37.57521683 23.99034045 37.66726315 21.37109375 37.6640625 C20.60417709 37.66834763 19.83726044 37.67263275 19.04710388 37.67704773 C17.42390938 37.68279448 15.80068912 37.68328874 14.17749023 37.67895508 C11.69274956 37.67579785 9.20920248 37.69923879 6.72460938 37.72460938 C5.148439 37.72688261 3.57226543 37.72758575 1.99609375 37.7265625 C1.25226944 37.73577225 0.50844513 37.74498199 -0.25791931 37.75447083 C-3.08925302 37.72906066 -5.34145396 37.66240888 -7.8503418 36.27612305 C-9.44521742 33.32132274 -9.27231501 30.73196217 -9.28125 27.39453125 C-9.28412018 26.71781372 -9.28699036 26.04109619 -9.28994751 25.34387207 C-9.29198647 23.91494916 -9.28646819 22.48599823 -9.27392578 21.05712891 C-9.25786761 18.870784 -9.27377784 16.68628746 -9.29296875 14.5 C-9.29098629 13.11067301 -9.28714254 11.72134716 -9.28125 10.33203125 C-9.27786621 9.06810547 -9.27448242 7.80417969 -9.27099609 6.50195312 C-8.8828125 3.36328125 -8.8828125 3.36328125 -7.72558594 1.45043945 C-5.09107785 -0.10380862 -3.04793989 -0.0085864 0 0 Z " fill="#2B2C2D" transform="translate(489.8828125,304.63671875)"/>
<path d="M0 0 C1.85189941 -0.04157227 1.85189941 -0.04157227 3.74121094 -0.08398438 C4.80549316 -0.1165332 5.86977539 -0.14908203 6.96630859 -0.18261719 C10.34210669 0.17345778 12.17504685 1.01552134 14.82714844 3.11914062 C15.33952134 6.70575097 15.64992327 8.99717495 13.45214844 11.99414062 C5.04978445 17.81116185 -12.38579268 15.39769344 -22.375 15.46923828 C-24.09518725 15.48605115 -25.81529806 15.51365768 -27.53515625 15.55126953 C-30.05536878 15.60572734 -32.57400756 15.62782618 -35.09472656 15.64257812 C-36.24772247 15.67658218 -36.24772247 15.67658218 -37.42401123 15.71127319 C-39.58203125 15.70263672 -39.58203125 15.70263672 -43.17285156 15.11914062 C-45.32677817 12.53496052 -46.04816915 10.84942334 -46.61035156 7.55664062 C-46.00056404 4.15925302 -44.91958355 3.20279392 -42.17285156 1.11914062 C-39.31302388 0.69949404 -36.82393845 0.51435238 -33.96191406 0.50976562 C-33.15732758 0.49322937 -32.35274109 0.47669312 -31.52377319 0.45965576 C-28.9483916 0.41119336 -26.37359024 0.38988548 -23.79785156 0.36914062 C-22.1038109 0.34095521 -20.40979834 0.31102421 -18.71582031 0.27929688 C-14.62517663 0.2071669 -10.5351256 0.17140859 -6.44396973 0.14477539 C-4.29458706 0.12051469 -2.14845772 0.06586796 0 0 Z " fill="#248AD5" transform="translate(253.1728515625,440.880859375)"/>
<path d="M0 0 C25.08 0 50.16 0 76 0 C71.91393682 2.04303159 70.02972211 2.28995159 65.57348633 2.41064453 C64.26724808 2.45053497 62.96100983 2.49042542 61.6151886 2.53152466 C60.18747569 2.5655488 58.75975636 2.59930425 57.33203125 2.6328125 C55.8538759 2.67404151 54.37574174 2.71603651 52.89762878 2.75875854 C49.79165704 2.84664599 46.68560809 2.92844772 43.5793457 3.00537109 C39.64841341 3.10273663 35.71784092 3.20998127 31.78728199 3.32132149 C27.98978878 3.42852512 24.19217117 3.53095922 20.39453125 3.6328125 C19.34213225 3.66148596 19.34213225 3.66148596 18.26847267 3.69073868 C7.84323233 3.96991722 -2.57155348 4.04284019 -13 4 C-13 3.67 -13 3.34 -13 3 C-12.14535156 2.95101562 -11.29070313 2.90203125 -10.41015625 2.8515625 C-9.30542969 2.77679687 -8.20070313 2.70203125 -7.0625 2.625 C-5.40927734 2.52058594 -5.40927734 2.52058594 -3.72265625 2.4140625 C-2.37494141 2.20910156 -2.37494141 2.20910156 -1 2 C-0.67 1.34 -0.34 0.68 0 0 Z " fill="#F9F8F2" transform="translate(541,585)"/>
<path d="M0 0 C0 0.33 0 0.66 0 1 C-13.0164602 1.7680946 -25.96123872 2.13274757 -39 2 C-39 1.67 -39 1.34 -39 1 C-38.09121094 0.95101562 -37.18242188 0.90203125 -36.24609375 0.8515625 C-29.46087887 0.4479292 -22.84207152 -0.13264074 -16.125 -1.1875 C-10.11439994 -2.05338035 -5.77360921 -1.82324501 0 0 Z " fill="#E7B489" transform="translate(637,586)"/>
<path d="M0 0 C6.93 0 13.86 0 21 0 C21 0.99 21 1.98 21 3 C17.7 3 14.4 3 11 3 C11 2.34 11 1.68 11 1 C9.35 1 7.7 1 6 1 C6 1.66 6 2.32 6 3 C4.02 3 2.04 3 0 3 C0 2.01 0 1.02 0 0 Z " fill="#383839" transform="translate(493,114)"/>
<path d="M0 0 C0.66 0.33 1.32 0.66 2 1 C1.04956626 2.33897583 0.08940853 3.67105427 -0.875 5 C-1.40867187 5.7425 -1.94234375 6.485 -2.4921875 7.25 C-3.23855469 8.11625 -3.23855469 8.11625 -4 9 C-4.66 9 -5.32 9 -6 9 C-4.68775452 5.06326356 -3.08089673 2.77280706 0 0 Z " fill="#FEB883" transform="translate(352,696)"/>
</svg>
