<?xml version="1.0" encoding="UTF-8"?>
<svg version="1.1" xmlns="http://www.w3.org/2000/svg" width="80" height="80">
<path d="M0 0 C0.99 0.495 0.99 0.495 2 1 C1.3098901 4.91062274 -0.55464175 8.09727766 -2.5 11.5 C-2.88164307 12.17289063 -3.26328613 12.84578125 -3.65649414 13.5390625 C-13.63728094 30.95565873 -24.27732711 48.03341194 -35 65 C-35.88042969 64.48308594 -36.76085938 63.96617188 -37.66796875 63.43359375 C-38.84071663 62.76747296 -40.01391795 62.10215003 -41.1875 61.4375 C-41.76564453 61.09525391 -42.34378906 60.75300781 -42.93945312 60.40039062 C-45.64913617 58.88480519 -47.5621117 57.98413448 -50.6953125 58.09765625 C-53.20216862 59.07915416 -54.72673484 60.16701504 -56.6875 62 C-60.9497835 65.93150762 -60.9497835 65.93150762 -64.875 66.1875 C-67.96075154 66.00235491 -69.51023567 65.77840309 -72 64 C-74.55241975 60.55423333 -74.5018474 57.15816417 -74 53 C-72.57283745 50.49148736 -71.13631274 49.03694936 -69 47 C-68.01 47 -67.02 47 -66 47 C-66.6394453 50.70878274 -66.6394453 50.70878274 -68.625 52.3125 C-70.4202426 54.11665689 -70.4202426 54.11665689 -69.6875 57.6875 C-69.3471875 59.3271875 -69.3471875 59.3271875 -69 61 C-66.39865016 62.1344095 -66.39865016 62.1344095 -63 62 C-59.79559685 60.14630647 -57.06735297 58.08702299 -55 55 C-55.13756578 50.39154646 -56.79789951 47.07600511 -59.0625 43.125 C-59.61035156 42.15820312 -60.15820312 41.19140625 -60.72265625 40.1953125 C-61.14417969 39.47085938 -61.56570312 38.74640625 -62 38 C-54.73820527 32.95677522 -47.17061178 28.47641113 -39.55581665 23.99658203 C-28.90955199 17.73149309 -18.29139114 11.43657695 -7.86328125 4.8125 C-6.44595703 3.9153125 -6.44595703 3.9153125 -5 3 C-4.08605469 2.401875 -3.17210938 1.80375 -2.23046875 1.1875 C-1.12638672 0.5996875 -1.12638672 0.5996875 0 0 Z " fill="#F68D8D" transform="translate(77,13)"/>
<path d="M0 0 C-1.44337034 3.30194891 -3.23730443 5.49017493 -5.77539062 8.03417969 C-6.54959351 8.81468689 -7.32379639 9.59519409 -8.12145996 10.39935303 C-9.37618103 11.6480014 -9.37618103 11.6480014 -10.65625 12.921875 C-11.51432251 13.78186096 -12.37239502 14.64184692 -13.25646973 15.52789307 C-15.06972467 17.34250826 -16.88550481 19.15460316 -18.70361328 20.96435547 C-21.49614138 23.74615621 -24.27782458 26.53848145 -27.05859375 29.33203125 C-28.81967133 31.09178772 -30.58136894 32.85092395 -32.34375 34.609375 C-33.18023071 35.44990417 -34.01671143 36.29043335 -34.87854004 37.15643311 C-35.65274292 37.92433167 -36.4269458 38.69223022 -37.22460938 39.48339844 C-37.90696655 40.16416443 -38.58932373 40.84493042 -39.2923584 41.54632568 C-41 43 -41 43 -43 43 C-43 43.66 -43 44.32 -43 45 C-44.96147874 46.38938077 -46.96166576 47.7260411 -49 49 C-51.66666667 43.66666667 -54.33333333 38.33333333 -57 33 C-56.15107178 32.49774902 -55.30214355 31.99549805 -54.42749023 31.47802734 C-50.42976495 29.11214255 -46.43355477 26.74370491 -42.4375 24.375 C-41.71624939 23.94770599 -40.99499878 23.52041199 -40.25189209 23.08016968 C-32.75087385 18.63471604 -25.25638224 14.18099412 -17.82421875 9.62109375 C-16.76726807 8.97285645 -15.71031738 8.32461914 -14.62133789 7.65673828 C-12.65577477 6.44693922 -10.69262949 5.23320118 -8.73217773 4.01513672 C-7.86407471 3.48033691 -6.99597168 2.94553711 -6.1015625 2.39453125 C-4.97741943 1.69614136 -4.97741943 1.69614136 -3.83056641 0.98364258 C-2 0 -2 0 0 0 Z " fill="#FBABAB" transform="translate(74,18)"/>
<path d="M0 0 C0.99 0.495 0.99 0.495 2 1 C1.3098901 4.91062274 -0.55464175 8.09727766 -2.5 11.5 C-2.88164307 12.17289063 -3.26328613 12.84578125 -3.65649414 13.5390625 C-13.63728094 30.95565873 -24.27732711 48.03341194 -35 65 C-35.88042969 64.48308594 -36.76085938 63.96617188 -37.66796875 63.43359375 C-38.84071663 62.76747296 -40.01391795 62.10215003 -41.1875 61.4375 C-41.76564453 61.09525391 -42.34378906 60.75300781 -42.93945312 60.40039062 C-45.64913617 58.88480519 -47.5621117 57.98413448 -50.6953125 58.09765625 C-53.20216862 59.07915416 -54.72673484 60.16701504 -56.6875 62 C-60.9497835 65.93150762 -60.9497835 65.93150762 -64.875 66.1875 C-67.96075154 66.00235491 -69.51023567 65.77840309 -72 64 C-74.55241975 60.55423333 -74.5018474 57.15816417 -74 53 C-72.57283745 50.49148736 -71.13631274 49.03694936 -69 47 C-68.01 47 -67.02 47 -66 47 C-66.6394453 50.70878274 -66.6394453 50.70878274 -68.625 52.3125 C-70.4202426 54.11665689 -70.4202426 54.11665689 -69.6875 57.6875 C-69.3471875 59.3271875 -69.3471875 59.3271875 -69 61 C-66.39865016 62.1344095 -66.39865016 62.1344095 -63 62 C-59.79559685 60.14630647 -57.06735297 58.08702299 -55 55 C-55.13756578 50.39154646 -56.79789951 47.07600511 -59.0625 43.125 C-59.61035156 42.15820312 -60.15820312 41.19140625 -60.72265625 40.1953125 C-61.14417969 39.47085938 -61.56570312 38.74640625 -62 38 C-54.73820527 32.95677522 -47.17061178 28.47641113 -39.55581665 23.99658203 C-28.90955199 17.73149309 -18.29139114 11.43657695 -7.86328125 4.8125 C-6.44595703 3.9153125 -6.44595703 3.9153125 -5 3 C-4.08605469 2.401875 -3.17210938 1.80375 -2.23046875 1.1875 C-1.12638672 0.5996875 -1.12638672 0.5996875 0 0 Z M-11.38671875 8.6640625 C-12.03272537 9.04836929 -12.67873199 9.43267609 -13.34431458 9.82862854 C-15.46134128 11.08973283 -17.57446505 12.35722063 -19.6875 13.625 C-21.13655674 14.4902616 -22.58577631 15.35525059 -24.03515625 16.2199707 C-36.06758185 23.40716984 -48.05313966 30.67145245 -60 38 C-59.57847656 38.80824219 -59.15695313 39.61648437 -58.72265625 40.44921875 C-58.17480469 41.51785156 -57.62695312 42.58648437 -57.0625 43.6875 C-56.24458984 45.27111328 -56.24458984 45.27111328 -55.41015625 46.88671875 C-54 50 -54 50 -53.48144531 52.80004883 C-53.32256836 53.52603271 -53.16369141 54.2520166 -53 55 C-50.19430254 56.63773095 -50.19430254 56.63773095 -46.75 57.6875 C-45.61046875 58.08324219 -44.4709375 58.47898438 -43.296875 58.88671875 C-42.20890625 59.25410156 -41.1209375 59.62148437 -40 60 C-38.33061553 60.65983159 -36.66343626 61.32531337 -35 62 C-31.70827322 56.5899495 -28.41667377 51.1798339 -25.13500977 45.76367188 C-24.55554344 44.80731339 -24.55554344 44.80731339 -23.96437073 43.83163452 C-23.17007299 42.5206545 -22.37583347 41.2096392 -21.58164978 39.89859009 C-19.27054823 36.08620931 -16.94870129 32.28071436 -14.61534119 28.48191833 C-13.55370588 26.75144696 -12.49594789 25.01867454 -11.43969727 23.28491211 C-10.12415621 21.12656497 -8.80191828 18.97228276 -7.47241211 16.82250977 C-6.88210205 15.84983154 -6.29179199 14.87715332 -5.68359375 13.875 C-5.16337646 13.02679688 -4.64315918 12.17859375 -4.10717773 11.3046875 C-2.71131604 8.82521891 -2.71131604 8.82521891 -3 5 C-6.23531101 5 -8.68022565 7.03497804 -11.38671875 8.6640625 Z " fill="#CB4949" transform="translate(77,13)"/>
<path d="M0 0 C2.9375 1.5625 2.9375 1.5625 5 4 C6.09832373 7.77548782 6.46978255 9.92993976 4.875 13.5625 C3.85044883 14.89441652 2.80679363 16.21499225 1.68359375 17.46484375 C-1.25605547 20.71690762 -1.25605547 20.71690762 -2.3125 24.875 C-2.1578125 25.926875 -2.1578125 25.926875 -2 27 C-3.98 27 -5.96 27 -8 27 C-9.13777813 23.01777654 -9.28368776 21.51671698 -7.25 17.8125 C-5 15 -5 15 -3.1875 13.4375 C-2.795625 12.963125 -2.40375 12.48875 -2 12 C-2.23043864 9.34533951 -2.23043864 9.34533951 -3 7 C-6.94727588 6.82057837 -9.5980513 6.90649311 -13 9 C-13 6.69 -13 4.38 -13 2 C-8.69775829 -0.15112085 -4.72583612 -0.75422435 0 0 Z " fill="#527CB8" transform="translate(18,2)"/>
<path d="M0 0 C0.99 0.66 1.98 1.32 3 2 C-2.230687 10.98724432 -7.48809799 19.95846308 -12.77081299 28.91522217 C-13.58698474 30.29950036 -14.40254168 31.68414124 -15.21746826 33.06915283 C-17.55187277 37.03595359 -19.89757904 40.99561305 -22.26101685 44.94519043 C-23.00356015 46.18987552 -23.74223624 47.43687585 -24.47702026 48.68615723 C-25.50289556 50.42846557 -26.54404445 52.1617539 -27.5859375 53.89453125 C-28.1742334 54.88300049 -28.7625293 55.87146973 -29.36865234 56.88989258 C-29.90699707 57.58622803 -30.4453418 58.28256348 -31 59 C-34.65353628 59 -36.22325645 57.92969699 -39.375 56.125 C-42.85575442 54.14010698 -46.24514929 52.40636226 -50 51 C-46.36003804 49.78667935 -45.55851885 50.33577381 -42.125 51.8125 C-41.28195313 52.16957031 -40.43890625 52.52664062 -39.5703125 52.89453125 C-38.72210938 53.25933594 -37.87390625 53.62414062 -37 54 C-35.33437889 54.66927462 -33.66785243 55.33630543 -32 56 C-31.55833496 55.24195068 -31.11666992 54.48390137 -30.66162109 53.70288086 C-28.56832849 50.11310328 -26.4722822 46.52494766 -24.375 42.9375 C-23.99472656 42.28661407 -23.61445312 41.63572815 -23.22265625 40.96511841 C-17.34685656 30.91477447 -11.36825327 20.93775357 -5.20458984 11.06030273 C-4.6627002 10.18317627 -4.12081055 9.3060498 -3.5625 8.40234375 C-3.08941406 7.64429443 -2.61632812 6.88624512 -2.12890625 6.10522461 C-1.03098528 4.05778245 -0.44729474 2.27021363 0 0 Z " fill="#D04E4E" transform="translate(74,18)"/>
<path d="M0 0 C-0.6394453 3.70878274 -0.6394453 3.70878274 -2.625 5.3125 C-4.4202426 7.11665689 -4.4202426 7.11665689 -3.6875 10.6875 C-3.3471875 12.3271875 -3.3471875 12.3271875 -3 14 C-0.39865016 15.1344095 -0.39865016 15.1344095 3 15 C5.27703174 13.32331561 7.19488861 11.49242194 9.16796875 9.46875 C9.77253906 8.9840625 10.37710937 8.499375 11 8 C11.99 8.33 12.98 8.66 14 9 C12.26548969 13.68317784 8.40759243 16.79620379 4 19 C0.12015747 19.25303321 -2.77364205 19.30454139 -6 17 C-8.55241975 13.55423333 -8.5018474 10.15816417 -8 6 C-5.99029022 2.46754858 -4.30924237 0 0 0 Z " fill="#9B6D54" transform="translate(11,60)"/>
<path d="M0 0 C1.29550781 -0.03867187 1.29550781 -0.03867187 2.6171875 -0.078125 C5.63796299 0.31711665 6.95897256 1.13308883 9.125 3.25 C9.8125 6.4375 9.8125 6.4375 9.125 10.25 C7.48044808 12.44969254 5.72092781 14.34245009 3.75390625 16.2578125 C1.85161718 18.58435309 1.48721342 20.30127667 1.125 23.25 C0.135 23.25 -0.855 23.25 -1.875 23.25 C-2.17482373 20.1660988 -2.22466265 18.72097418 -0.34375 16.1875 C0.96875 14.89583333 2.28125 13.60416667 3.59375 12.3125 C5.32341972 10.31763821 5.32341972 10.31763821 5.53125 7.625 C5.3971875 6.84125 5.263125 6.0575 5.125 5.25 C1.77172361 3.01448241 1.21756343 3.07716472 -2.5625 3.625 C-3.37074219 3.73585938 -4.17898437 3.84671875 -5.01171875 3.9609375 C-5.62660156 4.05632813 -6.24148437 4.15171875 -6.875 4.25 C-6.875 3.26 -6.875 2.27 -6.875 1.25 C-4.43545342 0.03022671 -2.72194151 0.04846187 0 0 Z " fill="#85B1EA" transform="translate(12.875,3.75)"/>
<path d="M0 0 C0.66 0.33 1.32 0.66 2 1 C1.6875 2.9375 1.6875 2.9375 1 5 C-2 6 -2 6 -4.16796875 6.24609375 C-8.37986033 7.36732833 -11.68110391 9.70322837 -15.3125 12.0625 C-16.05306641 12.53494141 -16.79363281 13.00738281 -17.55664062 13.49414062 C-19.37551219 14.65587149 -21.1883659 15.82701482 -23 17 C-23.66 16.34 -24.32 15.68 -25 15 C-18.33333333 11 -11.66666667 7 -5 3 C-4.11594482 2.42419189 -3.23188965 1.84838379 -2.32104492 1.25512695 C-1.17212769 0.63383911 -1.17212769 0.63383911 0 0 Z " fill="#C84A4A" transform="translate(77,13)"/>
<path d="M0 0 C0.66 0.33 1.32 0.66 2 1 C-0.64 5.29 -3.28 9.58 -6 14 C-9.22265625 12.2421875 -12.4453125 10.484375 -15.66796875 8.7265625 C-18.41513062 7.30306245 -21.10520381 6.07941553 -24 5 C-20.36003804 3.78667935 -19.55851885 4.33577381 -16.125 5.8125 C-14.86042969 6.34810547 -14.86042969 6.34810547 -13.5703125 6.89453125 C-12.72210938 7.25933594 -11.87390625 7.62414062 -11 8 C-8.525 8.99 -8.525 8.99 -6 10 C-4.02 6.7 -2.04 3.4 0 0 Z " fill="#CD4646" transform="translate(48,64)"/>
<path d="M0 0 C1.99954746 -0.04254356 4.00041636 -0.04080783 6 0 C7 1 7 1 7.0625 3.5625 C7.041875 4.366875 7.02125 5.17125 7 6 C4.125 6.625 4.125 6.625 1 7 C0.34 6.34 -0.32 5.68 -1 5 C-0.625 2.375 -0.625 2.375 0 0 Z " fill="#4F79BA" transform="translate(10,32)"/>
<path d="M0 0 C0.66 0.33 1.32 0.66 2 1 C1.67 2.32 1.34 3.64 1 5 C-0.32 5 -1.64 5 -3 5 C-1.125 1.125 -1.125 1.125 0 0 Z " fill="#7B8699" transform="translate(77,13)"/>
<path d="M0 0 C1.98 0.495 1.98 0.495 4 1 C3.67 1.99 3.34 2.98 3 4 C1.68 4 0.36 4 -1 4 C-0.67 2.68 -0.34 1.36 0 0 Z " fill="#84B0E9" transform="translate(12,33)"/>
</svg>
