<?xml version="1.0" ?><svg id="Layer_1" style="enable-background:new 0 0 512 512;" version="1.1" viewBox="0 0 512 512" xml:space="preserve" xmlns="http://www.w3.org/2000/svg" xmlns:xlink="http://www.w3.org/1999/xlink"><style type="text/css">
	.st0{fill:#FFD349;}
	.st1{fill:#EDC045;}
	.st2{fill:#FFFFFF;}
	.st3{fill:#58A9DE;}
	.st4{fill:#FCC995;}
</style><g><circle class="st0" cx="286.7" cy="160.5" r="72.4"/><circle class="st1" cx="286.7" cy="160.5" r="58.8"/><path class="st2" d="M302.4,164.1c-1-2-2.5-3.6-4.5-5.1c-2-1.4-4.5-2.7-7.6-3.6c-2.7-0.9-4.6-1.5-6.2-2.2c-1.5-0.6-2.7-1.3-3.5-2.2   c-0.9-0.9-1.3-2.1-1.3-3.5c0-1.5,0.6-2.9,1.8-3.9c1.2-1,2.7-1.5,4.5-1.5c1.8,0,3.2,0.4,4.2,1.2c1,0.8,1.9,1.9,2.7,3.2   c0.9,1.5,1.8,2.8,2.4,3.5c0.8,0.8,1.5,1.2,2.7,1.2c1.4,0,2.5-0.6,3.3-1.5c0.8-1,1.1-2.3,1.1-3.9c0-1.4-0.3-2.9-1.1-4.4   c-0.8-1.5-1.8-2.9-3.2-4.1c-1.4-1.2-3.1-2.2-5.2-3c-0.4-0.1-0.9-0.3-1.4-0.4v-2.2c0-2.9-2.3-5.2-5.2-5.2h-0.6   c-2.9,0-5.2,2.3-5.2,5.2v2.4c-1,0.3-2,0.8-2.9,1.3c-2.3,1.4-4.1,3.4-5.3,5.7c-1.2,2.4-1.8,5-1.8,7.7c0,3.1,0.7,5.6,2,7.7   c1.3,2.1,3,3.8,5.2,5.1c2.2,1.3,5,2.5,8.4,3.6c3.1,1,5.3,2,6.6,3.1c1.3,1.1,2,2.9,2,5.2c0,1.5-0.7,3-1.9,4.2c-1.3,1.2-3,1.8-5,1.8   c-2.4,0-4.4-0.6-5.9-1.8c-1.4-1.2-2.7-3-3.6-5.4c-0.6-1.2-1.1-2.2-1.7-3c-0.6-0.7-1.3-1-2.4-1c-1.2,0-2.2,0.6-3,1.5   c-0.8,1.1-1.2,2.3-1.2,3.9c0,2.2,0.7,4.5,1.9,6.7s3.1,4.1,5.6,5.6c0.9,0.6,1.9,1,2.9,1.3v1.8c0,2.9,2.3,5.2,5.2,5.2h0.8   c2.9,0,5.2-2.3,5.2-5.2v-1.2c1.8-0.3,3.3-0.9,4.8-1.7c2.7-1.3,4.6-3.4,6-6.1c1.3-2.7,2-5.9,2-9.6   C303.9,168.2,303.4,166,302.4,164.1z"/><path class="st3" d="M137.9,277l-53.4,39.1c-6.7,4.9-8.2,14.4-3.2,21l59,80.6c4.9,6.7,14.4,8.2,21,3.2l53.4-39.1   c6.7-4.9,8.2-14.4,3.2-21l-59-80.6C154,273.5,144.6,272.1,137.9,277z"/><path class="st4" d="M172.5,281.3l49.3,68.3c2.4,3.4,6.4,5.4,10.6,5.4h93.3c2.8,0,5.5-0.9,7.7-2.5l95-69.2c6.5-4.8,7.1-14,1.3-19.6   l-1-0.9c-4.3-4.1-10.9-4.8-15.9-1.7l-68.5,42.2c-2.2,1.3-4.8,2-7.4,2l-60.8-2.2c-7.1-0.2-12.7-6.1-12.6-13.2l0.1-3.6   c0.2-7.2,6.3-12.8,13.5-12.5l50.6,0.8c7.5,0.2,13.7-4.6,13.5-12l-0.1-4.6c-0.2-7-6-12.5-13-12.5h-44.5c-3.1,0-6.2-1.1-8.5-3.1   l-8.2-4c-26.5-13.2-58.7-7.7-79.5,13.3L172.1,267C169.2,271.5,169.4,277.1,172.5,281.3z"/></g></svg>